<svg width="28" height="28" viewBox="0 0 28 28" fill="none" xmlns="http://www.w3.org/2000/svg">
<g clip-path="url(#clip0_780_2519)">
<circle cx="14" cy="14" r="14" fill="#F6F6F6"/>
<path d="M7.0625 8.375C7.0625 7.4085 7.846 6.625 8.8125 6.625H17.5625C18.529 6.625 19.3125 7.4085 19.3125 8.375V19.75C19.3125 20.7165 18.529 21.5 17.5625 21.5H8.8125C7.846 21.5 7.0625 20.7165 7.0625 19.75V8.375Z" fill="white"/>
<path fill-rule="evenodd" clip-rule="evenodd" d="M8.8125 7.675H17.5625C17.9491 7.675 18.2625 7.9884 18.2625 8.375V19.75C18.2625 20.1366 17.9491 20.45 17.5625 20.45H8.8125C8.4259 20.45 8.1125 20.1366 8.1125 19.75V8.375C8.1125 7.9884 8.4259 7.675 8.8125 7.675ZM7.0625 8.375C7.0625 7.4085 7.846 6.625 8.8125 6.625H17.5625C18.529 6.625 19.3125 7.4085 19.3125 8.375V19.75C19.3125 20.7165 18.529 21.5 17.5625 21.5H8.8125C7.846 21.5 7.0625 20.7165 7.0625 19.75V8.375ZM11.0875 9.42496C10.7976 9.42496 10.5625 9.66001 10.5625 9.94996C10.5625 10.2399 10.7976 10.475 11.0875 10.475H15.4625C15.7524 10.475 15.9875 10.2399 15.9875 9.94996C15.9875 9.66001 15.7524 9.42496 15.4625 9.42496H11.0875Z" fill="#222222"/>
<path fill-rule="evenodd" clip-rule="evenodd" d="M21.9375 18C21.9375 15.833 20.167 14.0625 18 14.0625C15.833 14.0625 14.0625 15.833 14.0625 18C14.0625 20.167 15.833 21.9375 18 21.9375C20.167 21.9375 21.9375 20.167 21.9375 18Z" fill="#68E29D"/>
<path fill-rule="evenodd" clip-rule="evenodd" d="M18 13.5375C15.5431 13.5375 13.5375 15.5431 13.5375 18C13.5375 20.457 15.5431 22.4625 18 22.4625C20.4569 22.4625 22.4625 20.457 22.4625 18C22.4625 15.5431 20.4569 13.5375 18 13.5375ZM14.5875 18C14.5875 16.123 16.123 14.5875 18 14.5875C19.877 14.5875 21.4125 16.123 21.4125 18C21.4125 19.8771 19.877 21.4125 18 21.4125C16.123 21.4125 14.5875 19.8771 14.5875 18ZM18.6126 16.25C18.6126 15.9601 18.3775 15.725 18.0876 15.725C17.7976 15.725 17.5626 15.9601 17.5626 16.25V18.5809L17.1239 18.191C16.9071 17.9983 16.5753 18.0179 16.3827 18.2346C16.19 18.4513 16.2096 18.7831 16.4263 18.9758L17.7388 20.1424C17.9377 20.3192 18.2374 20.3192 18.4364 20.1424L19.7489 18.9758C19.9656 18.7831 19.9851 18.4513 19.7925 18.2346C19.5998 18.0179 19.268 17.9983 19.0513 18.191L18.6126 18.5809V16.25Z" fill="#222222"/>
</g>
<defs>
<clipPath id="clip0_780_2519">
<rect width="28" height="28" fill="white"/>
</clipPath>
</defs>
</svg>
