<svg width="28" height="28" viewBox="0 0 28 28" fill="none" xmlns="http://www.w3.org/2000/svg">
<g clip-path="url(#clip0_780_2508)">
<circle cx="14" cy="14" r="14" fill="#F6F6F6"/>
<rect x="10.0416" y="7.375" width="8.3125" height="5.54167" fill="#68E29D"/>
<path fill-rule="evenodd" clip-rule="evenodd" d="M14.5526 10.1872C14.2595 10.0264 13.8987 10.0264 13.6056 10.1872L9.09431 12.6616C8.80045 12.8229 8.61658 13.1228 8.61658 13.4505V18.3993C8.61658 18.727 8.80042 19.0269 9.09431 19.1882L13.6055 21.6626C13.8986 21.8234 14.2595 21.8235 14.5526 21.6626L19.0638 19.1882C19.3577 19.0269 19.5416 18.7273 19.5416 18.3996V13.4505C19.5416 13.1229 19.3577 12.8229 19.0638 12.6616L14.5526 10.1872Z" fill="white"/>
<path fill-rule="evenodd" clip-rule="evenodd" d="M10.2 8.0083C10.2 7.83341 10.3417 7.69164 10.5166 7.69164H17.6416C17.8165 7.69164 17.9583 7.83341 17.9583 8.0083V10.9717L15.0097 9.35444C14.4319 9.0374 13.7265 9.03737 13.1487 9.35435L10.2 10.9717V8.0083ZM9.24996 11.4928V8.0083C9.24996 7.30874 9.81707 6.74164 10.5166 6.74164H17.6416C18.3412 6.74164 18.9083 7.30874 18.9083 8.0083V11.4928L19.5208 11.8288C20.1026 12.148 20.4916 12.7581 20.4916 13.4506V18.3997C20.4916 19.0925 20.1025 19.702 19.5209 20.0211L15.0097 22.4955C14.4319 22.8125 13.7264 22.8126 13.1487 22.4955L8.63749 20.0212C8.05565 19.7019 7.66663 19.0918 7.66663 18.3994V13.4506C7.66663 12.7581 8.05547 12.1481 8.63734 11.8288L9.24996 11.4928ZM14.5527 10.1873C14.2595 10.0264 13.8988 10.0264 13.6056 10.1873L9.09436 12.6617C8.8005 12.823 8.61663 13.1229 8.61663 13.4506V18.3994C8.61663 18.727 8.80046 19.0269 9.09436 19.1883L13.6055 21.6626C13.8987 21.8235 14.2595 21.8235 14.5527 21.6627L19.0639 19.1883C19.3578 19.027 19.5416 18.7273 19.5416 18.3997V13.4506C19.5416 13.1229 19.3578 12.823 19.0639 12.6617L14.5527 10.1873ZM10.9125 15.8458C11.1748 15.8458 11.3875 16.0585 11.3875 16.3208V17.5462L13.957 18.942L15.4221 18.0825C15.6484 17.9498 15.9394 18.0256 16.0722 18.2519C16.2049 18.4781 16.1291 18.7692 15.9028 18.9019L14.2064 19.8971C14.0628 19.9814 13.8856 19.9843 13.7393 19.9048L10.6857 18.2461C10.5327 18.163 10.4375 18.0029 10.4375 17.8287V16.3208C10.4375 16.0585 10.6501 15.8458 10.9125 15.8458Z" fill="#222222"/>
</g>
<defs>
<clipPath id="clip0_780_2508">
<rect width="28" height="28" fill="white"/>
</clipPath>
</defs>
</svg>
