<svg width="28" height="28" viewBox="0 0 28 28" fill="none" xmlns="http://www.w3.org/2000/svg">
<g clip-path="url(#clip0_780_2560)">
<circle cx="14" cy="14" r="14" fill="#F6F6F6"/>
<path fill-rule="evenodd" clip-rule="evenodd" d="M16.0073 7.6244C16.395 7.23652 17.0237 7.23625 17.4117 7.62381L19.1253 9.33543C19.5135 9.72315 19.5138 10.3521 19.1259 10.7402L11.0365 18.8337C10.8982 18.9721 10.7221 19.0666 10.5302 19.1052L9.86854 19.2385C8.4666 19.521 7.22984 18.2835 7.51314 16.8817L7.64605 16.2241C7.68474 16.0327 7.77902 15.8569 7.91708 15.7188L16.0073 7.6244Z" fill="white"/>
<path d="M16.9166 12.3333L14.4166 9.83331L16.9166 7.33331L19.4166 9.83331L16.9166 12.3333Z" fill="#68E29D"/>
<path fill-rule="evenodd" clip-rule="evenodd" d="M17.8095 7.26433C17.2251 6.68938 16.2812 6.68977 15.6972 7.26521L7.57074 15.2731C7.36199 15.4789 7.21858 15.7415 7.15965 16.0287L6.55305 18.9848C6.42129 19.627 6.98649 20.1958 7.62944 20.0682L10.6439 19.47C10.9317 19.4129 11.197 19.2731 11.4061 19.0671L19.5317 11.06C20.1202 10.4802 20.1198 9.53704 19.5308 8.95768L17.8095 7.26433ZM16.3991 7.97749C16.594 7.78545 16.9132 7.78531 17.1082 7.9772L18.8296 9.67055C19.0204 9.85834 19.0206 10.1598 18.8298 10.3477L17.2223 11.9318L14.822 9.53158L16.3991 7.97749ZM14.1097 10.2335L8.27263 15.9854C8.20401 16.0531 8.15802 16.1382 8.13923 16.2297L7.55787 19.0629L10.4492 18.4892C10.5468 18.4698 10.6353 18.4227 10.7042 18.3548L16.51 12.6337L14.1097 10.2335ZM15.0171 19.1685C15.5548 18.5751 16.5215 18.6544 16.9526 19.3221C17.6885 20.4617 19.2802 20.6739 20.296 19.7757L21.4146 18.7865C21.6215 18.6036 21.6409 18.2876 21.458 18.0808C21.275 17.8739 20.9591 17.8545 20.7522 18.0374L19.6336 19.0265C19.0727 19.5225 18.1939 19.4009 17.7927 18.7796C17.0031 17.5569 15.2527 17.419 14.276 18.4971L13.6589 19.1783C13.4735 19.383 13.4891 19.6992 13.6938 19.8846C13.8984 20.07 14.2146 20.0544 14.4 19.8497L15.0171 19.1685Z" fill="#222222"/>
</g>
<defs>
<clipPath id="clip0_780_2560">
<rect width="28" height="28" fill="white"/>
</clipPath>
</defs>
</svg>
