<svg width="28" height="28" viewBox="0 0 28 28" fill="none" xmlns="http://www.w3.org/2000/svg">
<g clip-path="url(#clip0_780_2499)">
<circle cx="14" cy="14" r="14" fill="#F6F6F6"/>
<path d="M16.25 8.41178C16.25 8.0962 15.884 7.92175 15.6388 8.12049L11.4847 11.4884H8C7.79289 11.4884 7.625 11.6563 7.625 11.8634V16.136C7.625 16.3431 7.79297 16.511 8.00012 16.511L11.4847 16.5098L15.6388 19.8792C15.8839 20.078 16.25 19.9036 16.25 19.588V8.41178Z" fill="white"/>
<rect x="8" y="11.75" width="2.25" height="4.5" fill="#68E29D"/>
<path fill-rule="evenodd" clip-rule="evenodd" d="M15.8 8.56918L11.7681 11.838C11.688 11.903 11.5879 11.9384 11.4847 11.9384H10.775V16.0601L11.4846 16.0599C11.5879 16.0599 11.688 16.0953 11.7682 16.1604L15.8 19.4306V8.56918ZM8.07505 11.9384H9.87503V16.0604L8.07505 16.061V11.9384ZM15.3555 7.77098C15.8948 7.33375 16.7 7.71756 16.7 8.41182V19.588C16.7 20.2824 15.8946 20.6662 15.3554 20.2288L11.3252 16.9599L8.00032 16.961C7.54458 16.9612 7.17505 16.5918 7.17505 16.136V11.8634C7.17505 11.4078 7.54441 11.0384 8.00005 11.0384H11.3252L15.3555 7.77098ZM19.5503 11.2912C19.3898 11.1015 19.1059 11.0778 18.9161 11.2383C18.7264 11.3988 18.7027 11.6827 18.8632 11.8725C20.1399 13.3818 20.3208 15.3689 19.102 17.1531C18.9618 17.3583 19.0145 17.6383 19.2197 17.7785C19.4249 17.9187 19.7049 17.8659 19.8451 17.6607C21.2978 15.5343 21.0821 13.1022 19.5503 11.2912Z" fill="#222222"/>
</g>
<defs>
<clipPath id="clip0_780_2499">
<rect width="28" height="28" fill="white"/>
</clipPath>
</defs>
</svg>
