<svg width="28" height="28" viewBox="0 0 28 28" fill="none" xmlns="http://www.w3.org/2000/svg">
<g clip-path="url(#clip0_780_2488)">
<circle cx="14" cy="14" r="14" fill="#F6F6F6"/>
<path d="M7.92493 12.6499H20.0751V19.625C20.0751 20.2463 19.5714 20.75 18.9501 20.75H9.04993C8.42861 20.75 7.92493 20.2463 7.92493 19.625V12.6499Z" fill="white"/>
<path fill-rule="evenodd" clip-rule="evenodd" d="M19.1751 13.5499H8.82493V19.625C8.82493 19.7493 8.92566 19.85 9.04993 19.85H18.9501C19.0743 19.85 19.1751 19.7493 19.1751 19.625V13.5499ZM7.92493 12.6499V19.625C7.92493 20.2463 8.42861 20.75 9.04993 20.75H18.9501C19.5714 20.75 20.0751 20.2463 20.0751 19.625V12.6499H7.92493Z" fill="#222222"/>
<path d="M7.24988 11.0374C7.24988 10.6232 7.58566 10.2874 7.99988 10.2874H20.0001C20.4143 10.2874 20.7501 10.6232 20.7501 11.0374V13.25C20.7501 13.6642 20.4143 14 20.0001 14H7.99988C7.58566 14 7.24988 13.6642 7.24988 13.25V11.0374Z" fill="#68E29D"/>
<path fill-rule="evenodd" clip-rule="evenodd" d="M8.14988 11.1874V13.1H19.8501V11.1874H8.14988ZM7.99988 10.2874C7.58566 10.2874 7.24988 10.6232 7.24988 11.0374V13.25C7.24988 13.6642 7.58566 14 7.99988 14H20.0001C20.4143 14 20.7501 13.6642 20.7501 13.25V11.0374C20.7501 10.6232 20.4143 10.2874 20.0001 10.2874H7.99988Z" fill="#222222"/>
<path fill-rule="evenodd" clip-rule="evenodd" d="M12.4403 8.12938C13.0349 8.12938 13.5051 8.59962 13.5051 9.19423V10.2591H12.4403C11.8457 10.2591 11.3754 9.78884 11.3754 9.19423C11.3754 8.59962 11.8457 8.12938 12.4403 8.12938ZM13.5275 11.0635H12.4403C11.4014 11.0635 10.571 10.2331 10.571 9.19423C10.571 8.15538 11.4014 7.325 12.4403 7.325C13.067 7.325 13.6178 7.62717 13.9562 8.095C14.2946 7.62717 14.8455 7.325 15.4721 7.325C16.511 7.325 17.3414 8.15538 17.3414 9.19423C17.3414 10.2331 16.511 11.0635 15.4721 11.0635H14.3375V20.1501H13.5275V11.0635ZM15.4721 8.12938C14.8775 8.12938 14.4073 8.59962 14.4073 9.19423V10.2591H15.4721C16.0668 10.2591 16.537 9.78884 16.537 9.19423C16.537 8.59962 16.0668 8.12938 15.4721 8.12938Z" fill="#222222"/>
</g>
<defs>
<clipPath id="clip0_780_2488">
<rect width="28" height="28" fill="white"/>
</clipPath>
</defs>
</svg>
