<svg width="28" height="28" viewBox="0 0 28 28" fill="none" xmlns="http://www.w3.org/2000/svg">
<g clip-path="url(#clip0_780_2524)">
<circle cx="14" cy="14" r="14" fill="#F6F6F6"/>
<path d="M10.1029 20.6667H19.0735C19.7233 20.6667 20.25 20.1738 20.25 19.5658V16.4465V8.43426C20.25 7.82624 19.7233 7.33334 19.0735 7.33334H10.1029C8.80345 7.33334 7.75 8.31914 7.75 9.53518V18.4648C7.75 19.6809 8.80345 20.6667 10.1029 20.6667Z" fill="white"/>
<path d="M20.25 16.3777V8.43426C20.25 7.82624 19.7232 7.33334 19.0735 7.33334H11.5735V16.3777H20.25Z" fill="#68E29D"/>
<path fill-rule="evenodd" clip-rule="evenodd" d="M10.1029 7.83334C9.04781 7.83334 8.25 8.62602 8.25 9.53518V16.5148C8.76204 16.1459 9.42048 15.9465 10.1029 15.9465H11.0735V7.83334H10.1029ZM12.0735 7.83334V15.9465H19.75V8.43426C19.75 8.13313 19.4789 7.83334 19.0735 7.83334H12.0735ZM19.75 16.9465H10.1029C8.98715 16.9465 8.25 17.6091 8.25 18.4648C8.25 19.374 9.04781 20.1667 10.1029 20.1667H19.0735C19.4789 20.1667 19.75 19.8669 19.75 19.5658V16.9465ZM7.25 18.4648V9.53518C7.25 8.01225 8.55909 6.83334 10.1029 6.83334H19.0735C19.9676 6.83334 20.75 7.51936 20.75 8.43426V19.5658C20.75 20.4807 19.9676 21.1667 19.0735 21.1667H10.1029C8.55909 21.1667 7.25 19.9878 7.25 18.4648ZM13.8766 10.6361C13.8766 10.36 14.1004 10.1361 14.3766 10.1361H17.6029C17.8791 10.1361 18.1029 10.36 18.1029 10.6361C18.1029 10.9122 17.8791 11.1361 17.6029 11.1361H14.3766C14.1004 11.1361 13.8766 10.9122 13.8766 10.6361Z" fill="#222222"/>
</g>
<defs>
<clipPath id="clip0_780_2524">
<rect width="28" height="28" fill="white"/>
</clipPath>
</defs>
</svg>
