<svg width="28" height="28" viewBox="0 0 28 28" fill="none" xmlns="http://www.w3.org/2000/svg">
<g clip-path="url(#clip0_780_2549)">
<circle cx="14" cy="14" r="14" fill="#F6F6F6"/>
<path d="M16.6269 8.16718H11.3802C9.99691 8.14836 8.66247 8.66697 7.66948 9.60927C6.67649 10.5516 6.10611 11.8406 6.08337 13.1938V14.0527C6.08691 14.894 6.30538 15.7211 6.71891 16.4588C7.13243 17.1965 7.72775 17.8214 8.45103 18.2767C9.21809 18.752 10.0932 19.035 10.9988 19.1004C12.0999 19.1919 12.5031 19.0593 13.1076 19.9533C13.2516 20.1645 13.4026 20.3898 13.5609 20.6081C13.6104 20.6772 13.6761 20.7337 13.7525 20.7729C13.8289 20.8121 13.9138 20.8328 14 20.8334C14.0863 20.8328 14.1711 20.8121 14.2474 20.7729C14.3238 20.7337 14.3895 20.6772 14.439 20.6081C14.6045 20.3898 14.7485 20.1645 14.8925 19.9533C15.497 19.0452 15.9 19.1919 17.0011 19.1004C17.9067 19.035 18.7818 18.752 19.5489 18.2767C20.2722 17.8214 20.8676 17.1965 21.2812 16.4588C21.6947 15.7211 21.9132 14.894 21.9167 14.0527V13.1656C21.8865 11.8187 21.3137 10.5378 20.323 9.6018C19.3324 8.66575 18.0041 8.15016 16.6269 8.16718Z" fill="white"/>
<path fill-rule="evenodd" clip-rule="evenodd" d="M11.3738 9.11718H16.6327L16.6386 9.11711C17.772 9.1031 18.8614 9.52767 19.6706 10.2923C20.4766 11.0539 20.9396 12.0907 20.9667 13.1768V14.0507C20.9635 14.7291 20.7872 15.3971 20.4525 15.9943C20.1179 16.5912 19.6349 17.0993 19.0456 17.4709C18.4106 17.8638 17.6849 18.0984 16.9327 18.1528L16.9224 18.1536C16.7546 18.1676 16.6244 18.1745 16.4913 18.1815L16.4913 18.1815C16.4084 18.1859 16.3245 18.1903 16.2297 18.1966C16.0157 18.2107 15.7607 18.2337 15.5034 18.3061C14.9003 18.4757 14.4829 18.8554 14.1046 19.4225C14.0677 19.4767 14.0333 19.5279 14.0005 19.5768L13.9695 19.5314L13.8935 19.4196C13.5145 18.8595 13.0989 18.4841 12.5013 18.3127C12.2452 18.2392 11.9912 18.2143 11.7754 18.1989C11.6674 18.1912 11.5778 18.1862 11.4893 18.1812L11.4893 18.1812C11.3654 18.1743 11.2439 18.1674 11.0775 18.1536L11.0672 18.1528C10.315 18.0985 9.5893 17.8638 8.95432 17.4709C8.36508 17.0994 7.88225 16.5913 7.54759 15.9943C7.21283 15.3971 7.03655 14.729 7.03337 14.0505V13.2022C7.05376 12.1101 7.5149 11.0656 8.32342 10.2984C9.13453 9.52867 10.2288 9.1016 11.3673 9.11709L11.3738 9.11718ZM21.9167 14.0527V13.1656C21.8865 11.8187 21.3137 10.5378 20.323 9.6018C19.3324 8.66575 18.0041 8.15016 16.6269 8.16718H11.3802C9.99691 8.14836 8.66247 8.66697 7.66948 9.60927C6.67649 10.5516 6.10611 11.8406 6.08337 13.1938V14.0527C6.08691 14.894 6.30538 15.7211 6.71891 16.4588C7.13243 17.1965 7.72775 17.8214 8.45103 18.2767C9.21809 18.752 10.0932 19.035 10.9988 19.1004C11.1678 19.1144 11.3203 19.1232 11.4597 19.1312C12.2284 19.1754 12.5959 19.1965 13.1076 19.9533L13.1813 20.0617C13.3029 20.2406 13.4294 20.4268 13.5609 20.6081C13.6104 20.6772 13.6761 20.7337 13.7525 20.7729C13.8289 20.8121 13.9138 20.8328 14 20.8334C14.0863 20.8328 14.1711 20.8121 14.2474 20.7729C14.3238 20.7337 14.3895 20.6772 14.439 20.6081C14.561 20.4472 14.6713 20.2825 14.7786 20.1224L14.7786 20.1224C14.8168 20.0653 14.8546 20.0088 14.8925 19.9533C15.3995 19.1916 15.7648 19.172 16.5192 19.1315C16.6642 19.1237 16.8236 19.1151 17.0011 19.1004C17.9067 19.035 18.7818 18.752 19.5489 18.2767C20.2722 17.8214 20.8676 17.1965 21.2812 16.4588C21.6947 15.7211 21.9132 14.894 21.9167 14.0527ZM10.8334 14.6583C11.2706 14.6583 11.625 14.3039 11.625 13.8666C11.625 13.4294 11.2706 13.075 10.8334 13.075C10.3961 13.075 10.0417 13.4294 10.0417 13.8666C10.0417 14.3039 10.3961 14.6583 10.8334 14.6583ZM14 14.6583C14.4373 14.6583 14.7917 14.3039 14.7917 13.8666C14.7917 13.4294 14.4373 13.075 14 13.075C13.5628 13.075 13.2084 13.4294 13.2084 13.8666C13.2084 14.3039 13.5628 14.6583 14 14.6583ZM17.9584 13.8666C17.9584 14.3039 17.6039 14.6583 17.1667 14.6583C16.7295 14.6583 16.375 14.3039 16.375 13.8666C16.375 13.4294 16.7295 13.075 17.1667 13.075C17.6039 13.075 17.9584 13.4294 17.9584 13.8666Z" fill="#222222"/>
<path d="M21.125 9.35419C21.125 10.6659 20.0617 11.7292 18.75 11.7292C17.4383 11.7292 16.375 10.6659 16.375 9.35419C16.375 8.04251 17.4383 6.97919 18.75 6.97919C20.0617 6.97919 21.125 8.04251 21.125 9.35419Z" fill="#68E29D"/>
<path fill-rule="evenodd" clip-rule="evenodd" d="M18.75 10.7792C19.537 10.7792 20.175 10.1412 20.175 9.35419C20.175 8.56718 19.537 7.92919 18.75 7.92919C17.963 7.92919 17.325 8.56718 17.325 9.35419C17.325 10.1412 17.963 10.7792 18.75 10.7792ZM18.75 11.7292C20.0617 11.7292 21.125 10.6659 21.125 9.35419C21.125 8.04251 20.0617 6.97919 18.75 6.97919C17.4383 6.97919 16.375 8.04251 16.375 9.35419C16.375 10.6659 17.4383 11.7292 18.75 11.7292Z" fill="#222222"/>
</g>
<defs>
<clipPath id="clip0_780_2549">
<rect width="28" height="28" fill="white"/>
</clipPath>
</defs>
</svg>
