<svg width="28" height="28" viewBox="0 0 28 28" fill="none" xmlns="http://www.w3.org/2000/svg">
<g clip-path="url(#clip0_780_2513)">
<circle cx="14" cy="14" r="14" fill="#F6F6F6"/>
<path d="M8.16663 17.9835V13.3313V12.3333H19.8333V13.1481V17.9701C19.8333 18.1908 19.6704 18.395 19.4049 18.5072L14.7051 20.4934C14.1406 20.7319 13.4368 20.7237 12.8835 20.472L8.57067 18.51C8.31904 18.3955 8.16663 18.1969 8.16663 17.9835Z" fill="white"/>
<path fill-rule="evenodd" clip-rule="evenodd" d="M7.66663 12.3333C7.66663 12.0572 7.89048 11.8333 8.16663 11.8333H19.8333C20.1094 11.8333 20.3333 12.0572 20.3333 12.3333V17.9701C20.3333 18.4572 19.9812 18.8065 19.5995 18.9678L14.8997 20.9539C14.2076 21.2464 13.3582 21.2372 12.6765 20.9271L8.36363 18.9651C7.997 18.7983 7.66663 18.4542 7.66663 17.9835V12.3333ZM8.66663 12.8333V17.9733C8.66761 17.9749 8.669 17.9769 8.67093 17.9794C8.68336 17.9956 8.71488 18.0263 8.77771 18.0549L13.0905 20.0168C13.5154 20.2101 14.0735 20.2175 14.5104 20.0328L19.2102 18.0467C19.2783 18.0179 19.3135 17.9855 19.3278 17.9675C19.3303 17.9643 19.3321 17.9618 19.3333 17.9599V12.8333H8.66663Z" fill="#222222"/>
<path d="M13.6493 7.4175C13.8653 7.30529 14.1346 7.30529 14.3507 7.4175L20.9161 10.8269C21.139 10.9427 21.139 11.224 20.9161 11.3397L14.3507 14.7492C14.1346 14.8614 13.8653 14.8614 13.6493 14.7492L9.58417 12.6382L7.0838 11.3397C6.8609 11.224 6.8609 10.9427 7.0838 10.8269L13.6493 7.4175Z" fill="#68E29D"/>
<path fill-rule="evenodd" clip-rule="evenodd" d="M13.6493 7.4175C13.8653 7.30529 14.1346 7.30529 14.3507 7.4175L20.9161 10.8269C21.139 10.9427 21.139 11.224 20.9161 11.3397L14.3507 14.7492C14.1346 14.8614 13.8653 14.8614 13.6493 14.7492L7.0838 11.3397C6.8609 11.224 6.8609 10.9427 7.0838 10.8269L13.6493 7.4175ZM14.8115 6.53003L21.377 9.93948C21.8002 10.1592 22.0833 10.5893 22.0833 11.0833C22.0833 11.5773 21.8002 12.0074 21.377 12.2272L14.8115 15.6367C14.3065 15.8989 13.6934 15.8989 13.1884 15.6367L6.62294 12.2272C6.19973 12.0074 5.91663 11.5773 5.91663 11.0833C5.91663 10.5893 6.19973 10.1592 6.62294 9.93948L13.1884 6.53003C13.6934 6.26778 14.3065 6.26778 14.8115 6.53003Z" fill="#222222"/>
</g>
<defs>
<clipPath id="clip0_780_2513">
<rect width="28" height="28" fill="white"/>
</clipPath>
</defs>
</svg>
