<svg width="28" height="28" viewBox="0 0 28 28" fill="none" xmlns="http://www.w3.org/2000/svg">
<g clip-path="url(#clip0_780_2493)">
<circle cx="14" cy="14" r="14" fill="#F6F6F6"/>
<path d="M8.16663 18.75V10.8333H19.8333V18.75C19.8333 19.4403 19.2737 20 18.5833 20H9.41663C8.72627 20 8.16663 19.4403 8.16663 18.75Z" fill="white"/>
<path fill-rule="evenodd" clip-rule="evenodd" d="M7.66663 10.3333H20.3333V18.75C20.3333 19.7165 19.5498 20.5 18.5833 20.5H9.41663C8.45013 20.5 7.66663 19.7165 7.66663 18.75V10.3333ZM8.66663 11.3333V18.75C8.66663 19.1642 9.00241 19.5 9.41663 19.5H18.5833C18.9975 19.5 19.3333 19.1642 19.3333 18.75V11.3333H8.66663Z" fill="#222222"/>
<path fill-rule="evenodd" clip-rule="evenodd" d="M7.25 11.1665V8.73932C7.25 8.42306 7.50639 8.16667 7.82265 8.16667H11.2737H12.2125H15.6998H16.6386H20.0897C20.406 8.16667 20.6623 8.42306 20.6623 8.73932V11.1665C20.6623 12.5369 19.5514 13.6478 18.1811 13.6478C17.3229 13.6478 16.5664 13.2121 16.1209 12.5498C15.6327 13.2155 14.8449 13.6478 13.9561 13.6478C13.0674 13.6478 12.2796 13.2155 11.7915 12.5498C11.3459 13.2121 10.5895 13.6478 9.73126 13.6478C8.3609 13.6478 7.25 12.5369 7.25 11.1665Z" fill="#68E29D"/>
<path fill-rule="evenodd" clip-rule="evenodd" d="M6.75 8.73932C6.75 8.14692 7.23024 7.66667 7.82265 7.66667H20.0897C20.6821 7.66667 21.1623 8.14691 21.1623 8.73932V11.1665C21.1623 12.813 19.8276 14.1478 18.1811 14.1478C17.3754 14.1478 16.6446 13.828 16.1085 13.3095C15.5423 13.8295 14.7864 14.1478 13.9561 14.1478C13.1259 14.1478 12.37 13.8296 11.8038 13.3095C11.2677 13.828 10.5369 14.1478 9.73126 14.1478C8.08476 14.1478 6.75 12.813 6.75 11.1665V8.73932ZM7.82265 8.66667C7.78253 8.66667 7.75 8.6992 7.75 8.73932V11.1665C7.75 12.2607 8.63704 13.1478 9.73126 13.1478C10.4161 13.1478 11.02 12.8008 11.3766 12.2707L11.7739 11.6802L12.1947 12.2542C12.5927 12.797 13.2334 13.1478 13.9561 13.1478C14.6789 13.1478 15.3196 12.797 15.7176 12.2541L16.1384 11.6802L16.5357 12.2707C16.8923 12.8008 17.4963 13.1478 18.1811 13.1478C19.2753 13.1478 20.1623 12.2607 20.1623 11.1665V8.73932C20.1623 8.6992 20.1298 8.66667 20.0897 8.66667H7.82265Z" fill="#222222"/>
</g>
<defs>
<clipPath id="clip0_780_2493">
<rect width="28" height="28" fill="white"/>
</clipPath>
</defs>
</svg>
