<svg width="28" height="28" viewBox="0 0 28 28" fill="none" xmlns="http://www.w3.org/2000/svg">
<g clip-path="url(#clip0_780_2566)">
<circle cx="14" cy="14" r="14" fill="#F6F6F6"/>
<path d="M13.4578 21.1557C13.7621 21.4516 14.2378 21.4516 14.5421 21.1557C15.9891 19.749 19.8333 15.7128 19.8333 12.5363C19.8333 9.29458 17.2216 6.66669 14 6.66669C10.7783 6.66669 8.16663 9.29458 8.16663 12.5363C8.16663 15.7128 12.0108 19.749 13.4578 21.1557Z" fill="white"/>
<path d="M15.8637 12.2917C15.8637 13.3273 15.0294 14.1667 14.0003 14.1667C12.9711 14.1667 12.1368 13.3273 12.1368 12.2917C12.1368 11.2562 12.9711 10.4167 14.0003 10.4167C15.0294 10.4167 15.8637 11.2562 15.8637 12.2917Z" fill="#68E29D"/>
<path fill-rule="evenodd" clip-rule="evenodd" d="M14 7.16669C11.0574 7.16669 8.66663 9.5678 8.66663 12.5363C8.66663 13.9547 9.54079 15.6457 10.675 17.217C11.7927 18.7654 13.0924 20.1031 13.8064 20.7972C13.9166 20.9044 14.0833 20.9044 14.1935 20.7972C14.9075 20.1031 16.2072 18.7654 17.3249 17.217C18.4591 15.6457 19.3333 13.9547 19.3333 12.5363C19.3333 9.5678 16.9426 7.16669 14 7.16669ZM7.66663 12.5363C7.66663 9.02136 10.4992 6.16669 14 6.16669C17.5007 6.16669 20.3333 9.02136 20.3333 12.5363C20.3333 14.2943 19.2854 16.2097 18.1357 17.8023C16.9696 19.4179 15.6237 20.8016 14.8906 21.5142C14.3922 21.9987 13.6077 21.9987 13.1093 21.5142C12.3762 20.8016 11.0304 19.4179 9.86419 17.8023C8.71456 16.2097 7.66663 14.2943 7.66663 12.5363ZM14.0002 10.9168C13.2501 10.9168 12.6368 11.5295 12.6368 12.2918C12.6368 13.0541 13.2501 13.6668 14.0002 13.6668C14.7503 13.6668 15.3636 13.0541 15.3636 12.2918C15.3636 11.5295 14.7503 10.9168 14.0002 10.9168ZM11.6368 12.2918C11.6368 10.9831 12.692 9.91681 14.0002 9.91681C15.3084 9.91681 16.3636 10.9831 16.3636 12.2918C16.3636 13.6006 15.3084 14.6668 14.0002 14.6668C12.692 14.6668 11.6368 13.6006 11.6368 12.2918Z" fill="#222222"/>
</g>
<defs>
<clipPath id="clip0_780_2566">
<rect width="28" height="28" fill="white"/>
</clipPath>
</defs>
</svg>
