<svg width="28" height="28" viewBox="0 0 28 28" fill="none" xmlns="http://www.w3.org/2000/svg">
<g clip-path="url(#clip0_780_2535)">
<circle cx="14" cy="14" r="14" fill="#F6F6F6"/>
<path d="M18.375 7.49997H9.625C8.93464 7.49997 8.375 8.05961 8.375 8.74997V20.0255C8.375 20.3271 8.68535 20.5287 8.96089 20.4063L14 18.1667L19.0391 20.4063C19.3146 20.5287 19.625 20.3271 19.625 20.0255V8.74997C19.625 8.05961 19.0654 7.49997 18.375 7.49997Z" fill="white"/>
<path d="M18.375 7.49997H9.625C8.93464 7.49997 8.375 8.05961 8.375 8.74997V10.5833C8.375 10.8595 8.59886 11.0833 8.875 11.0833H19.125C19.4011 11.0833 19.625 10.8595 19.625 10.5833V8.74997C19.625 8.05961 19.0654 7.49997 18.375 7.49997Z" fill="#68E29D"/>
<path fill-rule="evenodd" clip-rule="evenodd" d="M9.625 6.99997C8.6585 6.99997 7.875 7.78347 7.875 8.74997V20.0255C7.875 20.6889 8.55778 21.1326 9.16396 20.8632L14 18.7138L18.836 20.8632C19.4422 21.1326 20.125 20.6889 20.125 20.0255V8.74997C20.125 7.78347 19.3415 6.99997 18.375 6.99997H9.625ZM8.875 8.74997C8.875 8.33576 9.21079 7.99997 9.625 7.99997H18.375C18.7892 7.99997 19.125 8.33576 19.125 8.74997V10.6667H8.875V8.74997ZM8.875 11.6667V19.8973L13.7969 17.7098C13.9262 17.6523 14.0738 17.6523 14.2031 17.7098L19.125 19.8973V11.6667H8.875Z" fill="#222222"/>
</g>
<defs>
<clipPath id="clip0_780_2535">
<rect width="28" height="28" fill="white"/>
</clipPath>
</defs>
</svg>
