<svg width="28" height="28" viewBox="0 0 28 28" fill="none" xmlns="http://www.w3.org/2000/svg">
<g clip-path="url(#clip0_780_2530)">
<circle cx="14" cy="14" r="14" fill="#F6F6F6"/>
<path d="M20.6666 19.8333C17.7294 18.1503 14.8695 19.132 13.9033 19.8333V9.19793C13.9033 9.13387 13.9335 9.0735 13.9867 9.0379C14.974 8.37772 17.5359 7.54675 20.2393 8.86918C20.5076 9.00043 20.6666 9.28021 20.6666 9.5789V19.8333Z" fill="white"/>
<path d="M13.9034 19.8333C10.9662 18.1503 8.29956 19.132 7.33337 19.8333V9.52081C7.33337 9.25392 7.45839 8.99944 7.69158 8.8696C8.84642 8.22657 11.212 7.60555 13.8017 9.03866C13.8644 9.07337 13.9034 9.14018 13.9034 9.21186V19.8333Z" fill="#68E29D"/>
<path fill-rule="evenodd" clip-rule="evenodd" d="M14.4034 9.36662V18.9848C15.6972 18.412 17.8724 18.0156 20.1667 19.0217V9.57891C20.1667 9.45282 20.1005 9.3579 20.0196 9.31833C17.6244 8.14663 15.3598 8.80409 14.4034 9.36662ZM13.4034 19.0202V9.39225C11.0594 8.17005 8.95232 8.7399 7.93482 9.30646C7.88702 9.33307 7.83337 9.40233 7.83337 9.52083V18.977C9.08441 18.4093 11.1407 18.02 13.4034 19.0202ZM13.8817 8.51385C15.089 7.79953 17.7114 7.07593 20.4591 8.42005C20.9148 8.64299 21.1667 9.10762 21.1667 9.57891V19.8333C21.1667 20.0117 21.0717 20.1765 20.9174 20.2659C20.7631 20.3554 20.5729 20.3558 20.4181 20.2672C17.6834 18.7002 15.036 19.6291 14.1971 20.238C14.0379 20.3536 13.8256 20.365 13.6548 20.2672C10.9228 18.7017 8.46883 19.627 7.62708 20.238C7.47495 20.3484 7.27374 20.3642 7.10627 20.2788C6.9388 20.1934 6.83337 20.0213 6.83337 19.8333V9.52083C6.83337 9.10553 7.02977 8.66583 7.44834 8.43277C8.69322 7.7396 11.1715 7.09209 13.8817 8.51385Z" fill="#222222"/>
</g>
<defs>
<clipPath id="clip0_780_2530">
<rect width="28" height="28" fill="white"/>
</clipPath>
</defs>
</svg>
