<svg width="28" height="28" viewBox="0 0 28 28" fill="none" xmlns="http://www.w3.org/2000/svg">
<g clip-path="url(#clip0_780_2555)">
<circle cx="14" cy="14" r="14" fill="#F6F6F6"/>
<path fill-rule="evenodd" clip-rule="evenodd" d="M9.53843 19.6076C9.01893 19.5484 8.60849 19.1424 8.53359 18.6249L7.41614 10.9049C7.3725 10.6034 7.60634 10.3333 7.91098 10.3333H20.0892C20.3938 10.3333 20.6276 10.6034 20.584 10.9049L19.4666 18.6249C19.3917 19.1424 18.9812 19.5484 18.4617 19.6076C15.3181 19.9661 12.682 19.9661 9.53843 19.6076Z" fill="white"/>
<path fill-rule="evenodd" clip-rule="evenodd" d="M8.48857 11.3333L9.52327 18.4816C9.53446 18.5589 9.59297 18.6074 9.65174 18.6141C12.72 18.964 15.2801 18.964 18.3484 18.6141C18.4072 18.6074 18.4657 18.5589 18.4769 18.4816L19.5116 11.3333H8.48857ZM8.53359 18.6249C8.60849 19.1424 9.01893 19.5484 9.53843 19.6076C12.682 19.9661 15.3181 19.9661 18.4617 19.6076C18.9812 19.5484 19.3917 19.1424 19.4666 18.6249L20.584 10.9049C20.6276 10.6034 20.3938 10.3333 20.0892 10.3333H7.91098C7.60634 10.3333 7.3725 10.6034 7.41614 10.9049L8.53359 18.6249Z" fill="#222222"/>
<path d="M6.91663 11.3333V9.33329C6.91663 8.9651 7.2151 8.66663 7.58329 8.66663H20.4166C20.7848 8.66663 21.0833 8.9651 21.0833 9.33329V11.3333C21.0833 11.7015 20.7848 12 20.4166 12H7.58329C7.2151 12 6.91663 11.7015 6.91663 11.3333Z" fill="#68E29D"/>
<path fill-rule="evenodd" clip-rule="evenodd" d="M7.58341 9.16669C7.49137 9.16669 7.41675 9.24131 7.41675 9.33335V11.3334C7.41675 11.4254 7.49137 11.5 7.58341 11.5H20.4167C20.5088 11.5 20.5834 11.4254 20.5834 11.3334V9.33335C20.5834 9.24131 20.5088 9.16669 20.4167 9.16669H7.58341ZM6.41675 9.33335C6.41675 8.68902 6.93908 8.16669 7.58341 8.16669H20.4167C21.0611 8.16669 21.5834 8.68902 21.5834 9.33335V11.3334C21.5834 11.9777 21.0611 12.5 20.4167 12.5H7.58341C6.93908 12.5 6.41675 11.9777 6.41675 11.3334V9.33335Z" fill="#222222"/>
</g>
<defs>
<clipPath id="clip0_780_2555">
<rect width="28" height="28" fill="white"/>
</clipPath>
</defs>
</svg>
