<svg width="28" height="28" viewBox="0 0 28 28" fill="none" xmlns="http://www.w3.org/2000/svg">
<g clip-path="url(#clip0_780_2571)">
<circle cx="14" cy="14" r="14" fill="#F6F6F6"/>
<path d="M21.5 14C21.5 16.1449 20.5996 18.0794 19.1562 19.4464C17.8122 20.7193 15.9973 21.5 14 21.5C12.0457 21.5 10.2659 20.7525 8.93105 19.5278C7.43676 18.1568 6.5 16.1878 6.5 14C6.5 9.85786 9.85786 6.5 14 6.5C18.1421 6.5 21.5 9.85786 21.5 14Z" fill="white"/>
<path d="M11.0833 17.3333L9 19.4166C12.3333 23.1666 19 20.25 18.5833 19C18.25 18 17.1944 17.6111 16.5 17.3333H11.0833Z" fill="#68E29D"/>
<path fill-rule="evenodd" clip-rule="evenodd" d="M14 7C10.134 7 7 10.134 7 14C7 15.8622 7.72659 17.554 8.91289 18.8085C9.17011 18.5332 9.49657 18.1938 9.82315 17.8816C10.0761 17.6398 10.3391 17.4045 10.5759 17.2266C10.6938 17.1381 10.816 17.0554 10.9351 16.9928C11.0403 16.9375 11.2032 16.8646 11.3859 16.8646H16.6144C16.9429 16.8646 17.271 17.0285 17.5286 17.19C17.8059 17.364 18.0912 17.594 18.3534 17.8312C18.6627 18.1108 18.9609 18.4195 19.1962 18.6905C20.3178 17.4489 21 15.8044 21 14C21 10.134 17.866 7 14 7ZM18.4738 19.384C18.2696 19.1457 17.9877 18.8486 17.6827 18.5729C17.4444 18.3574 17.207 18.1688 16.9972 18.0371C16.7676 17.8931 16.6442 17.8646 16.6144 17.8646H11.4275C11.4207 17.8677 11.4118 17.872 11.4006 17.8778C11.3471 17.906 11.2723 17.9542 11.1766 18.0261C10.9862 18.1692 10.7561 18.3731 10.5142 18.6044C10.207 18.8981 9.8969 19.2202 9.64982 19.4845C10.8446 20.4336 12.3557 21 14 21C15.7015 21 17.2605 20.3934 18.4738 19.384ZM6 14C6 9.58172 9.58172 6 14 6C18.4183 6 22 9.58172 22 14C22 16.2878 21.039 18.352 19.5001 19.8094C18.0668 21.1668 16.1302 22 14 22C11.9156 22 10.0165 21.2022 8.59303 19.8962C6.99985 18.4345 6 16.3337 6 14Z" fill="#222222"/>
<path fill-rule="evenodd" clip-rule="evenodd" d="M16.6866 12.35C16.6866 10.9191 15.4787 9.75 14.0002 9.75C12.5218 9.75 11.3138 10.9191 11.3138 12.35C11.3138 13.7808 12.5218 14.9499 14.0002 14.9499C15.4786 14.9499 16.6866 13.7808 16.6866 12.35Z" fill="white"/>
<path fill-rule="evenodd" clip-rule="evenodd" d="M10.8138 12.35C10.8138 10.6277 12.2612 9.25 14.0002 9.25C15.7393 9.25 17.1866 10.6277 17.1866 12.35C17.1866 14.0723 15.7392 15.4499 14.0002 15.4499C12.2612 15.4499 10.8138 14.0723 10.8138 12.35ZM14.0002 10.25C12.7824 10.25 11.8138 11.2105 11.8138 12.35C11.8138 13.4894 12.7824 14.4499 14.0002 14.4499C15.218 14.4499 16.1866 13.4894 16.1866 12.35C16.1866 11.2105 15.218 10.25 14.0002 10.25Z" fill="#222222"/>
</g>
<defs>
<clipPath id="clip0_780_2571">
<rect width="28" height="28" fill="white"/>
</clipPath>
</defs>
</svg>
