<svg width="28" height="28" viewBox="0 0 28 28" fill="none" xmlns="http://www.w3.org/2000/svg">
<g clip-path="url(#clip0_780_2544)">
<circle cx="14" cy="14" r="14" fill="#F6F6F6"/>
<path d="M7.75 8.58335C7.75 7.66288 8.49619 6.91669 9.41667 6.91669H18.5833C19.5038 6.91669 20.25 7.66288 20.25 8.58335V19.4167C20.25 20.3372 19.5038 21.0834 18.5833 21.0834H9.41667C8.49619 21.0834 7.75 20.3372 7.75 19.4167V8.58335Z" fill="white"/>
<path d="M11.0833 6.91669H9.41667C8.49619 6.91669 7.75 7.66288 7.75 8.58335V19.4167C7.75 20.3372 8.49619 21.0834 9.41667 21.0834H11.0833V6.91669Z" fill="#68E29D"/>
<path fill-rule="evenodd" clip-rule="evenodd" d="M18.5833 7.91669H11.5834V20.0834H18.5833C18.9515 20.0834 19.25 19.7849 19.25 19.4167V8.58335C19.25 8.21516 18.9515 7.91669 18.5833 7.91669ZM9.41667 7.91669H10.5834V20.0834H9.41667C9.04848 20.0834 8.75 19.7849 8.75 19.4167V8.58335C8.75 8.21516 9.04848 7.91669 9.41667 7.91669ZM9.41667 6.91669C8.49619 6.91669 7.75 7.66288 7.75 8.58335V19.4167C7.75 20.3372 8.49619 21.0834 9.41667 21.0834H18.5833C19.5038 21.0834 20.25 20.3372 20.25 19.4167V8.58335C20.25 7.66288 19.5038 6.91669 18.5833 6.91669H9.41667ZM13.1667 9.75004C12.8905 9.75004 12.6667 9.9739 12.6667 10.25C12.6667 10.5262 12.8905 10.75 13.1667 10.75H17.4678C17.744 10.75 17.9678 10.5262 17.9678 10.25C17.9678 9.9739 17.744 9.75004 17.4678 9.75004H13.1667ZM13.1667 12.5625C12.8905 12.5625 12.6667 12.7864 12.6667 13.0625C12.6667 13.3387 12.8905 13.5625 13.1667 13.5625H17.4678C17.744 13.5625 17.9678 13.3387 17.9678 13.0625C17.9678 12.7864 17.744 12.5625 17.4678 12.5625H13.1667ZM13.1667 15.375C12.8905 15.375 12.6667 15.5989 12.6667 15.875C12.6667 16.1512 12.8905 16.375 13.1667 16.375H15.6089C15.885 16.375 16.1089 16.1512 16.1089 15.875C16.1089 15.5989 15.885 15.375 15.6089 15.375H13.1667Z" fill="#222222"/>
</g>
<defs>
<clipPath id="clip0_780_2544">
<rect width="28" height="28" fill="white"/>
</clipPath>
</defs>
</svg>
