<svg width="24" height="24" viewBox="0 0 24 24" fill="none" xmlns="http://www.w3.org/2000/svg">
<path fill-rule="evenodd" clip-rule="evenodd" d="M7.16272 16.0516C6.94576 16.2686 6.94576 16.6203 7.16272 16.8373C7.37968 17.0542 7.73143 17.0542 7.94839 16.8373L12 12.7857L16.0516 16.8373C16.2686 17.0542 16.6203 17.0542 16.8373 16.8373C17.0542 16.6203 17.0542 16.2686 16.8373 16.0516L12.7857 12L16.8373 7.94839C17.0542 7.73143 17.0542 7.37968 16.8373 7.16272C16.6203 6.94576 16.2686 6.94576 16.0516 7.16272L12 11.2143L7.94839 7.16272C7.73143 6.94576 7.37968 6.94576 7.16272 7.16272C6.94576 7.37968 6.94576 7.73144 7.16272 7.94839L11.2143 12L7.16272 16.0516Z" fill="#757575"/>
</svg>
