<svg width="92" height="32" viewBox="0 0 92 32" fill="none" xmlns="http://www.w3.org/2000/svg">
<path d="M26.1014 7.39822L22.8078 8.63305L19.2654 7.17526C18.9019 7.02403 18.5077 6.9694 18.1187 7.01632C17.7296 7.06324 17.358 7.21023 17.0375 7.44395C15.8948 8.26743 14.6513 8.9291 13.34 9.41148C13.238 9.45337 13.1508 9.52662 13.09 9.62141C13.0293 9.71621 12.9979 9.82802 13.0001 9.94185C13.0023 10.0557 13.038 10.1661 13.1023 10.2583C13.1667 10.3505 13.2567 10.42 13.3602 10.4577C14.2747 10.7635 15.2405 10.8678 16.1961 10.7639C17.1516 10.6601 18.0757 10.3503 18.9093 9.85453L27.113 17.4417C27.2847 17.6008 27.4279 17.7894 27.5362 18L30 15.2578L26.1014 7.39822Z" fill="black"/>
<path d="M26.4626 17.6609L18.7808 10.8382C17.0519 11.6785 15.0639 11.8196 13.2331 11.2319C13.0467 11.1691 12.8779 11.0633 12.7404 10.923C12.6029 10.7827 12.5008 10.612 12.4422 10.4248C12.3378 10.1114 12.3587 9.7699 12.5005 9.47142C12.6423 9.17295 12.894 8.94043 13.2034 8.82225C14.2032 8.46839 15.1609 8.00586 16.0591 7.44301C14.9343 7.25361 13.7807 7.32791 12.6896 7.66003C11.1547 7.77392 9.61528 7.79454 8.07765 7.7228L6.2827 7L2 14.7087L4.33209 16.5829L5.58091 15.5463C5.92055 15.2627 6.34982 15.108 6.79284 15.1095C7.31553 15.1289 7.80917 15.3541 8.16555 15.7357C8.52192 16.1173 8.71195 16.6242 8.69396 17.1452L8.82532 17.0367C9.0554 16.8425 9.32971 16.7074 9.62427 16.6433C9.91883 16.5792 10.2247 16.5881 10.515 16.669C11.0174 16.8262 11.4392 17.1709 11.6923 17.6311C11.9454 18.0913 12.01 18.6312 11.8727 19.1378C12.0032 19.1235 12.1336 19.1235 12.265 19.1378C12.7831 19.2253 13.246 19.5121 13.554 19.9365C13.862 20.3609 13.9903 20.8888 13.9115 21.4067C14.1469 21.3478 14.3918 21.3364 14.6317 21.373C14.8716 21.4097 15.1018 21.4937 15.3087 21.6201C15.7565 21.9015 16.0795 22.3428 16.2116 22.8538C16.3438 23.3647 16.275 23.9066 16.0195 24.3687L17.729 25.7139C17.7974 25.7659 17.8721 25.8089 17.9503 25.8421C18.1537 25.9479 18.3795 26.0018 18.6089 26C19.0164 25.9896 19.4031 25.8186 19.6841 25.5243C19.9651 25.2301 20.1175 24.8367 20.1079 24.4306C20.1079 24.2752 20.0858 24.1206 20.0422 23.9715C20.1775 24.116 20.3412 24.2314 20.523 24.3103C20.7049 24.3893 20.901 24.4302 21.0994 24.4306C21.5068 24.4193 21.8932 24.2474 22.1735 23.9525C22.4539 23.6575 22.6054 23.2638 22.5947 22.8577C22.5954 22.5241 22.493 22.1985 22.3014 21.925C22.4342 22.0732 22.5964 22.1923 22.7777 22.2749C22.9591 22.3575 23.1556 22.4017 23.3549 22.4048C23.5542 22.4079 23.752 22.3699 23.9359 22.293C24.1197 22.2161 24.2855 22.1021 24.423 21.9582C24.5057 21.8918 24.5795 21.8156 24.6443 21.7322C24.8395 21.4578 24.9223 21.1188 24.8746 20.7861C24.8683 20.572 24.82 20.3612 24.7325 20.1655L24.8611 20.2211C25.1738 20.3582 25.5235 20.3866 25.8543 20.3019C26.1851 20.2173 26.4778 20.0244 26.6855 19.7542C26.8932 19.484 27.0039 19.1521 26.9999 18.8118C26.9959 18.4714 26.8773 18.1422 26.6633 17.877C26.606 17.7966 26.5386 17.724 26.4626 17.6609Z" fill="black"/>
<path d="M7.44694 16.4778C7.35607 16.3488 7.24085 16.2407 7.10838 16.16C6.97591 16.0793 6.829 16.0277 6.6767 16.0085C6.5244 15.9893 6.36994 16.0028 6.22283 16.0482C6.07573 16.0936 5.93909 16.1699 5.82135 16.2725L4.42811 17.4842C4.18802 17.7058 4.03723 18.014 4.00603 18.3468C3.97483 18.6796 4.06553 19.0124 4.25992 19.2783C4.35074 19.4046 4.46511 19.5105 4.59616 19.5896C4.72721 19.6687 4.87224 19.7194 5.02254 19.7386C5.17283 19.7577 5.32529 19.745 5.47075 19.7012C5.61622 19.6574 5.75169 19.5833 5.86903 19.4835L7.26487 18.2718C7.50688 18.0521 7.66018 17.7449 7.69395 17.4121C7.72773 17.0793 7.63948 16.7455 7.44694 16.4778ZM10.5611 17.9807C10.47 17.8531 10.3549 17.7462 10.223 17.6664C10.091 17.5866 9.94493 17.5355 9.79352 17.5163C9.6421 17.4971 9.48853 17.5102 9.3421 17.5547C9.19566 17.5993 9.05942 17.6743 8.94162 17.7754L6.43431 19.9637C6.19219 20.1836 6.0389 20.491 6.00528 20.824C5.97167 21.1571 6.06021 21.491 6.25311 21.7587C6.3437 21.8879 6.45874 21.9964 6.59111 22.0774C6.72348 22.1585 6.87038 22.2103 7.02272 22.2298C7.17507 22.2493 7.32963 22.236 7.47685 22.1908C7.62408 22.1455 7.76084 22.0692 7.8787 21.9667L10.399 19.7756C10.6383 19.553 10.7879 19.2443 10.818 18.9113C10.8481 18.5784 10.7563 18.246 10.5611 17.9807ZM12.4841 20.537C12.3934 20.4081 12.2784 20.2998 12.1461 20.219C12.0139 20.1381 11.8672 20.0863 11.715 20.0667C11.5628 20.0471 11.4084 20.0602 11.2613 20.1052C11.1141 20.1501 10.9774 20.226 10.8594 20.3281L8.88786 22.0426C8.64535 22.2622 8.49157 22.5694 8.45747 22.9024C8.42337 23.2354 8.51148 23.5696 8.70406 23.8376C8.79493 23.9664 8.91011 24.0744 9.0425 24.155C9.1749 24.2356 9.32171 24.2872 9.4739 24.3064C9.6261 24.3256 9.78045 24.3121 9.92747 24.2668C10.0745 24.2215 10.2111 24.1453 10.3288 24.0429L12.3029 22.3311C12.5449 22.1113 12.6982 21.8042 12.732 21.4714C12.7658 21.1386 12.6766 20.8047 12.4841 20.537ZM13.1196 22.5825L11.8113 23.7282C11.5693 23.9479 11.416 24.2552 11.3824 24.588C11.3488 24.9209 11.4373 25.2547 11.6301 25.5222C11.721 25.6512 11.8362 25.7593 11.9687 25.84C12.1012 25.9207 12.2481 25.9723 12.4004 25.9915C12.5527 26.0107 12.7071 25.9972 12.8542 25.9518C13.0013 25.9064 13.138 25.8301 13.2557 25.7275L14.564 24.5927C14.8055 24.3733 14.9587 24.0668 14.9928 23.7346C15.0269 23.4024 14.9394 23.069 14.7478 22.8013C14.6579 22.671 14.5433 22.5613 14.4111 22.4791C14.2789 22.3968 14.1319 22.3438 13.9792 22.3233C13.8266 22.3028 13.6715 22.3152 13.5236 22.3598C13.3757 22.4044 13.2382 22.4802 13.1196 22.5825Z" fill="black"/>
<path d="M45.247 7.681H41.737V9.193H44.914V10.237H41.737V11.911H45.229V13H40.522V6.592H45.247V7.681ZM51.8212 6.592V7.681H49.7692V13H48.5452V7.681H46.4932V6.592H51.8212ZM57.5287 6.592H58.7437V13H57.5287V10.264H54.5497V13H53.3347V6.592H54.5497V9.166H57.5287V6.592ZM60.6859 13V6.592H61.9009V13H60.6859ZM66.6884 13.144C64.8614 13.144 63.5834 11.866 63.5834 9.796C63.5834 7.726 64.8344 6.448 66.6884 6.448C68.1104 6.448 69.3164 7.213 69.5954 8.797H68.3624C68.1374 7.897 67.4714 7.51 66.6884 7.51C65.5454 7.51 64.8524 8.365 64.8524 9.796C64.8524 11.236 65.5454 12.082 66.6884 12.082C67.5074 12.082 68.2634 11.596 68.4074 10.588H69.6224C69.4424 12.28 68.1554 13.144 66.6884 13.144ZM75.5397 13L75.0357 11.587H72.2277L71.7327 13H70.4817L72.9207 6.592H74.3427L76.8267 13H75.5397ZM72.5967 10.552H74.6667L74.4147 9.859C74.1897 9.274 73.8837 8.419 73.6227 7.663C73.3617 8.419 73.0557 9.274 72.8397 9.859L72.5967 10.552ZM79.4104 11.911H82.4614V13H78.1954V6.592H79.4104V11.911ZM44.635 22.625C45.391 22.904 45.751 23.525 45.751 24.164C45.751 25.262 45.031 26 43.519 26H40.522V19.592H43.42C44.896 19.592 45.49 20.375 45.49 21.248C45.49 21.878 45.166 22.355 44.635 22.625ZM43.33 20.591H41.737V22.265H43.33C43.96 22.265 44.284 21.932 44.284 21.401C44.284 20.924 43.96 20.591 43.33 20.591ZM43.456 24.992C44.14 24.992 44.509 24.668 44.509 24.11C44.509 23.507 44.113 23.219 43.456 23.219H41.737V24.992H43.456ZM49.9203 26.135C48.3093 26.135 47.2383 25.253 47.2383 23.588V19.592H48.4533V23.597C48.4533 24.605 49.0023 25.082 49.9203 25.082C50.8383 25.082 51.3873 24.605 51.3873 23.597V19.592H52.6023V23.588C52.6023 25.253 51.5673 26.135 49.9203 26.135ZM58.593 19.592H59.934L57.531 23.471V26H56.316V23.471L53.895 19.592H55.272L55.983 20.753C56.307 21.293 56.64 21.833 56.946 22.373C57.252 21.824 57.576 21.275 57.891 20.744L58.593 19.592ZM61.2396 26V19.592H62.4546V26H61.2396ZM68.6462 19.592H69.8162V26H68.4662L66.6842 23.147C66.2792 22.508 65.8652 21.842 65.5412 21.221C65.5772 22.355 65.5772 23.381 65.5772 24.326V26H64.4072V19.592H65.7572L67.5482 22.445C67.9082 23.03 68.3582 23.768 68.6822 24.371C68.6552 23.237 68.6462 22.211 68.6462 21.266V19.592ZM74.8361 22.544H77.6981V26H76.8161L76.6451 25.154C76.1951 25.793 75.4571 26.144 74.5571 26.144C72.7121 26.144 71.4971 24.812 71.4971 22.796C71.4971 20.78 72.7121 19.448 74.6651 19.448C76.2851 19.448 77.4101 20.339 77.6261 21.725H76.3751C76.1951 20.978 75.5561 20.51 74.6741 20.51C73.4951 20.51 72.7661 21.383 72.7661 22.796C72.7661 24.209 73.5131 25.082 74.7191 25.082C75.6641 25.082 76.4471 24.461 76.5101 23.525H74.8361V22.544Z" fill="black"/>
</svg>
