<svg width="134" height="32" viewBox="0 0 134 32" fill="none" xmlns="http://www.w3.org/2000/svg">
<path fill-rule="evenodd" clip-rule="evenodd" d="M27.3649 4.30254C27.3786 4.33241 27.3868 4.36589 27.3913 4.39847C27.3925 4.60592 27.3467 4.81099 27.2574 4.99851C26.9575 5.94074 26.4493 6.8044 25.7701 7.52625C25.5078 7.7498 25.26 7.99144 25.0305 8.24847C24.9103 8.41771 24.8237 8.60324 24.7208 8.77882C24.6242 8.95409 24.5123 9.12065 24.3866 9.27658C24.3445 9.31055 24.3168 9.35894 24.3089 9.41222C24.3009 9.46549 24.3134 9.51978 24.3437 9.56438C24.4567 9.91734 24.4703 10.2938 24.3829 10.654C24.1962 11.7944 23.3464 13.1926 23.8765 14.3457C24.1133 14.866 24.6398 15.2145 24.9604 15.7141C25.1107 15.9557 25.24 16.2544 25.3976 16.5159C25.6562 16.9259 25.8111 17.392 25.8475 17.8744C26.7146 17.8744 26.8713 16.9802 27.7384 16.9929C27.8513 16.9929 27.9752 17.0264 27.9979 17.1983C28.0061 17.2755 27.9899 17.3533 27.9515 17.4209C27.7873 17.73 27.5988 18.0257 27.3877 18.3052C27.1669 18.6658 26.9172 19.0081 26.6408 19.3287C26.4596 19.5331 26.2115 19.6671 25.9404 19.707C25.8074 19.707 25.6535 19.6799 25.5369 19.7595C25.4804 19.81 25.4329 19.8697 25.3966 19.936C25.3538 20.0048 25.3138 20.0745 25.2637 20.1415C25.0477 20.41 24.7665 20.6196 24.4467 20.7505C24.2454 20.8537 24.0368 20.9415 23.8228 21.0157C23.7877 21.0248 23.7562 21.0441 23.7323 21.0713C23.7085 21.0984 23.6934 21.132 23.6891 21.1678C23.6847 21.2035 23.6914 21.2397 23.7081 21.2717C23.7248 21.3037 23.7508 21.3299 23.7827 21.347L24.2436 21.642C24.5569 21.8438 25.1334 22.0592 25.1908 22.4873C25.2099 22.6529 24.8338 23.0665 24.7627 23.2195C24.4703 23.882 24.9367 24.3164 24.3929 25.0187C24.0623 25.4296 23.5841 25.6974 23.0595 25.7671C22.5436 25.8523 22.0155 25.8307 21.5084 25.7038C21.2879 25.6664 21.0894 25.5486 20.9519 25.3734C20.89 25.2868 20.8639 25.1799 20.879 25.0748C20.9154 24.853 21.1249 24.7698 21.3162 24.7101C21.8454 24.5517 22.4155 24.4521 22.8263 24.0476C22.9332 23.9479 23.0181 23.8273 23.0755 23.6933C23.1329 23.5593 23.1615 23.4149 23.1597 23.2692C23.1597 22.8213 22.8263 22.6493 22.5394 22.4936L21.4455 21.9207C20.9582 21.6619 20.4281 21.3569 20.2615 20.8338C20.0347 20.1179 20.5484 19.2229 20.9081 18.6337C21.0648 18.4391 21.1522 18.1993 21.1586 17.9504C21.1313 17.8002 21.0675 17.6581 20.9755 17.5368C20.655 17.0306 20.311 16.5396 19.9445 16.0652C19.6111 15.6308 19.2413 15.2733 19.1248 14.7231C19.0182 14.2334 19.6148 12.2813 18.9808 12.1654C18.3843 12.4035 18.1475 12.9573 17.8068 13.4207C17.8942 13.6434 18.1775 13.6108 18.3041 13.8325C18.4147 14.0504 18.4449 14.3 18.3895 14.5378C18.3341 14.7755 18.1966 14.9865 18.0008 15.1339C17.3332 15.5285 17.0736 14.6805 16.7466 14.3022C16.6238 14.1502 16.4672 14.0286 16.2891 13.9469C16.111 13.8653 15.9162 13.8258 15.7201 13.8316C15.0966 13.8712 14.4797 13.9826 13.8821 14.1637C13.7032 14.2008 13.521 14.2196 13.3383 14.2199C13.005 14.2199 12.9749 14.3022 12.892 14.4914C12.5988 15.1538 12.5186 15.7313 12.2882 16.4263C12.0419 17.0456 11.6937 17.62 11.258 18.126C10.9575 18.4898 10.6942 18.8826 10.4747 19.2998C10.4527 19.3379 10.4464 19.383 10.4574 19.4256C10.5075 19.5677 10.7106 19.6636 10.8108 19.7568C11.5213 20.4193 11.1879 21.4963 10.6778 22.1886C10.1253 22.9327 9.37265 23.5068 8.50645 23.8448C8.26144 23.9172 8.02372 24.0077 7.79328 24.1164C7.37613 24.3489 7.38341 24.634 7.37977 25.0485C7.37977 25.5789 7.53279 25.7635 7.95359 26.1056C8.1403 26.2577 8.48004 26.5427 8.31974 26.8179C8.29645 26.8563 8.26554 26.8895 8.2289 26.9157C8.19226 26.9418 8.15065 26.9603 8.1066 26.9699C7.6603 27.0858 7.38615 26.8477 7.10562 26.5862C6.82599 26.3237 6.1693 25.9699 5.97893 25.5617C5.78857 25.1544 6.04907 24.6938 5.90243 24.2793C5.77855 23.9281 5.62918 23.6865 6.05909 23.4312C6.47271 23.195 6.86627 22.9256 7.23586 22.6258C7.51822 22.3461 7.7696 22.0375 7.98638 21.7054C7.31199 21.3077 6.70058 20.813 6.17203 20.2374C6.02903 20.3397 5.87419 20.4265 5.71206 20.4953C5.44246 20.6112 5.14098 20.6311 4.85863 20.5514C4.604 20.511 4.35745 20.4306 4.12815 20.3134C4.09959 20.3001 4.07399 20.2812 4.05288 20.2579C4.03176 20.2346 4.01555 20.2073 4.00519 20.1777C3.94781 19.9324 4.38136 19.6935 4.54531 19.584C4.81218 19.412 5.10455 19.2817 5.41241 19.1966C5.6729 19.126 5.94341 19.1025 6.2121 19.1269C6.2121 19.1269 6.39882 18.6165 6.49628 18.3712C6.71943 17.8011 7.21582 17.344 7.49636 16.7874C8.05651 15.6344 8.31609 14.3592 8.25325 13.0795C8.21317 12.2478 8.17309 11.3835 8.52649 10.6015C8.62577 10.3346 8.75693 10.0812 8.91723 9.84585C9.13674 9.56076 9.39996 9.35894 9.46736 8.98426C9.6131 8.13896 8.88717 7.14886 8.41355 6.51534C7.98 5.9325 7.20216 4.87542 7.38615 4.10343C8.05287 3.65635 9.69052 4.76591 9.93644 5.38586C10.0776 5.74063 9.87359 6.23116 9.96012 6.652C10.0703 7.19139 10.7644 6.95337 11.0677 6.8511C11.7845 6.60493 13.9285 6.36691 13.6289 7.64934C13.4923 8.22584 13.0414 8.58333 12.7153 9.05032C13.0715 9.40872 13.5651 9.60692 13.7555 10.1472C13.7555 10.1273 14.4787 9.91191 14.5488 9.87571C14.8831 9.71009 14.9696 9.41867 15.1363 9.12635C15.2756 8.93448 15.3886 8.72361 15.4697 8.50097C15.2785 8.34378 15.0989 8.1732 14.9323 7.99053C14.6189 7.16515 15.8731 6.94613 16.344 7.37059C16.2894 7.32081 17.0335 6.42936 17.1137 6.34972C17.3879 6.04343 17.739 5.81485 18.1311 5.68723C18.6939 5.62117 18.6839 6.52529 18.418 6.814C18.3542 6.8692 18.2841 6.91807 18.2112 6.95971C17.9835 7.1018 17.4434 7.6955 17.4643 7.99325C17.4835 8.29191 18.1037 9.00688 18.3606 9.19694C18.8579 9.56076 19.2149 9.34174 19.6949 9.13992C19.9545 9.03313 20.2305 8.97159 20.5119 8.95801C20.5357 8.9568 20.5586 8.94916 20.5783 8.93593C20.5979 8.9227 20.6136 8.90437 20.6235 8.88293C20.6335 8.8615 20.6373 8.83776 20.6347 8.81431C20.632 8.79085 20.623 8.76856 20.6085 8.74985C20.5397 8.66293 20.4652 8.5807 20.3853 8.50369C20.2378 8.36431 20.0146 8.272 20.021 8.03036C20.0283 7.78781 20.3316 7.54616 20.5083 7.40679C20.7551 7.22397 21.0329 7.08551 21.328 6.99953C21.7391 6.87885 22.1678 6.82836 22.5959 6.8502C22.8127 6.8502 23.0231 6.89002 23.2362 6.90993C23.5094 6.94161 23.7863 6.94161 24.0596 6.90993C24.8738 6.26736 25.3302 5.58497 26.0606 4.85913C26.3211 4.59034 26.8576 3.82197 27.2711 4.09348C27.324 4.15108 27.3569 4.22405 27.3649 4.30163V4.30254ZM16.5699 9.12997C16.2803 9.12997 15.8832 10.2603 15.783 10.4558C15.313 11.4858 15.1163 12.036 14.0424 12.4967C13.8147 12.5926 13.6189 12.7854 13.6817 12.8677C13.7455 12.951 14.6026 12.8243 14.7128 12.808C14.9933 12.7519 15.282 12.7519 15.5626 12.808C15.793 12.8514 16.4032 13.1564 16.6064 12.9311C16.8104 12.7048 17.0399 12.3935 17.274 12.132C17.4197 11.96 17.6738 11.7808 17.8305 11.579C17.85 11.5549 17.8646 11.5272 17.8733 11.4975C17.8821 11.4677 17.8848 11.4366 17.8814 11.4058C17.8781 11.3751 17.8686 11.3453 17.8536 11.3181C17.8386 11.291 17.8184 11.2671 17.7941 11.2477C17.5846 11.0731 17.3842 10.8857 17.1966 10.6866C17.0086 10.3249 16.8742 9.93807 16.7976 9.53814C16.7716 9.38069 16.7051 9.2326 16.6045 9.10825L16.5708 9.13087L16.5699 9.12997Z" fill="black"/>
<path d="M45.049 7.681H41.737V9.193H44.752V10.237H41.737V13H40.522V6.592H45.049V7.681ZM46.6075 13V6.592H47.8225V13H46.6075ZM52.8441 9.544H55.7061V13H54.8241L54.6531 12.154C54.2031 12.793 53.4651 13.144 52.5651 13.144C50.7201 13.144 49.5051 11.812 49.5051 9.796C49.5051 7.78 50.7201 6.448 52.6731 6.448C54.2931 6.448 55.4181 7.339 55.6341 8.725H54.3831C54.2031 7.978 53.5641 7.51 52.6821 7.51C51.5031 7.51 50.7741 8.383 50.7741 9.796C50.7741 11.209 51.5211 12.082 52.7271 12.082C53.6721 12.082 54.4551 11.461 54.5181 10.525H52.8441V9.544ZM61.751 6.592H62.966V13H61.751V10.264H58.772V13H57.557V6.592H58.772V9.166H61.751V6.592ZM69.8054 6.592V7.681H67.7534V13H66.5294V7.681H64.4774V6.592H69.8054ZM71.3189 13V6.592H72.5339V13H71.3189ZM78.7255 6.592H79.8955V13H78.5455L76.7635 10.147C76.3585 9.508 75.9445 8.842 75.6205 8.221C75.6565 9.355 75.6565 10.381 75.6565 11.326V13H74.4865V6.592H75.8365L77.6275 9.445C77.9875 10.03 78.4375 10.768 78.7615 11.371C78.7345 10.237 78.7255 9.211 78.7255 8.266V6.592ZM84.9154 9.544H87.7774V13H86.8954L86.7244 12.154C86.2744 12.793 85.5364 13.144 84.6364 13.144C82.7914 13.144 81.5764 11.812 81.5764 9.796C81.5764 7.78 82.7914 6.448 84.7444 6.448C86.3644 6.448 87.4894 7.339 87.7054 8.725H86.4544C86.2744 7.978 85.6354 7.51 84.7534 7.51C83.5744 7.51 82.8454 8.383 82.8454 9.796C82.8454 11.209 83.5924 12.082 84.7984 12.082C85.7434 12.082 86.5264 11.461 86.5894 10.525H84.9154V9.544ZM45.112 26L44.608 24.587H41.8L41.305 26H40.054L42.493 19.592H43.915L46.399 26H45.112ZM42.169 23.552H44.239L43.987 22.859C43.762 22.274 43.456 21.419 43.195 20.663C42.934 21.419 42.628 22.274 42.412 22.859L42.169 23.552ZM52.0067 19.592H53.1767V26H51.8267L50.0447 23.147C49.6397 22.508 49.2257 21.842 48.9017 21.221C48.9377 22.355 48.9377 23.381 48.9377 24.326V26H47.7677V19.592H49.1177L50.9087 22.445C51.2687 23.03 51.7187 23.768 52.0427 24.371C52.0157 23.237 52.0067 22.211 52.0067 21.266V19.592ZM55.1277 26V19.592H56.3427V26H55.1277ZM63.3532 19.592H65.1172V26H63.9562V24.047C63.9562 23.075 63.9652 22.031 63.9922 20.87C63.8482 21.356 63.7042 21.788 63.5062 22.346L62.2102 26H61.2112L59.9062 22.346C59.7172 21.797 59.5732 21.365 59.4292 20.888C59.4562 22.04 59.4652 23.084 59.4652 24.047V26H58.2952V19.592H60.0592L61.1662 22.706C61.3552 23.282 61.5532 23.912 61.7152 24.443C61.8772 23.885 62.0842 23.219 62.2822 22.643L63.3532 19.592ZM71.546 26L71.042 24.587H68.234L67.739 26H66.488L68.927 19.592H70.349L72.833 26H71.546ZM68.603 23.552H70.673L70.421 22.859C70.196 22.274 69.89 21.419 69.629 20.663C69.368 21.419 69.062 22.274 68.846 22.859L68.603 23.552ZM75.4167 24.911H78.4677V26H74.2017V19.592H75.4167V24.911ZM87.8247 19.592V20.681H85.7727V26H84.5487V20.681H82.4967V19.592H87.8247ZM94.0632 20.681H90.5532V22.193H93.7302V23.237H90.5532V24.911H94.0452V26H89.3382V19.592H94.0632V20.681ZM98.144 26.144C96.434 26.144 95.408 25.361 95.399 23.885H96.596C96.614 24.893 97.289 25.163 98.18 25.163C99.017 25.163 99.476 24.839 99.476 24.236C99.476 23.732 99.143 23.507 98.162 23.309L97.622 23.201C96.38 22.967 95.561 22.418 95.561 21.257C95.561 20.195 96.398 19.448 97.937 19.448C99.737 19.448 100.502 20.294 100.547 21.5H99.368C99.323 20.816 98.972 20.429 97.955 20.429C97.181 20.429 96.803 20.735 96.803 21.221C96.803 21.734 97.1 21.968 98.054 22.166L98.612 22.274C100.124 22.571 100.736 23.156 100.736 24.173C100.736 25.442 99.746 26.144 98.144 26.144ZM106.951 19.592V20.681H104.899V26H103.675V20.681H101.623V19.592H106.951ZM108.465 26V19.592H109.68V26H108.465ZM115.872 19.592H117.042V26H115.692L113.91 23.147C113.505 22.508 113.091 21.842 112.767 21.221C112.803 22.355 112.803 23.381 112.803 24.326V26H111.633V19.592H112.983L114.774 22.445C115.134 23.03 115.584 23.768 115.908 24.371C115.881 23.237 115.872 22.211 115.872 21.266V19.592ZM122.062 22.544H124.924V26H124.042L123.871 25.154C123.421 25.793 122.683 26.144 121.783 26.144C119.938 26.144 118.723 24.812 118.723 22.796C118.723 20.78 119.938 19.448 121.891 19.448C123.511 19.448 124.636 20.339 124.852 21.725H123.601C123.421 20.978 122.782 20.51 121.9 20.51C120.721 20.51 119.992 21.383 119.992 22.796C119.992 24.209 120.739 25.082 121.945 25.082C122.89 25.082 123.673 24.461 123.736 23.525H122.062V22.544Z" fill="black"/>
</svg>
