<svg width="108" height="32" viewBox="0 0 108 32" fill="none" xmlns="http://www.w3.org/2000/svg">
<path d="M27.9445 16.3457C27.601 12.4896 25.4626 8.91531 22.0738 6.54226C18.6851 4.17017 14.6675 3.41584 11.0074 4.45767C9.50221 4.86213 8.09914 5.58515 6.89111 6.57885C5.68307 7.57256 4.69763 8.81429 4 10.2219C4.57576 10.5107 5.14841 10.8058 5.71783 11.1071C6.35877 9.93379 7.23173 8.90634 8.2824 8.0887C9.33307 7.27105 10.539 6.68071 11.8251 6.35439C13.3908 5.99541 15.0133 5.96988 16.5894 6.27945C18.1654 6.58902 19.6604 7.2269 20.9792 8.15247C22.298 9.07804 23.4117 10.271 24.2493 11.6555C25.087 13.0399 25.6303 14.5855 25.8446 16.1938C25.9958 17.5227 25.8751 18.8689 25.4902 20.1487C25.1052 21.4285 24.4641 22.6147 23.6068 23.6337C24.1052 24.0825 24.5999 24.5379 25.0852 25C26.1403 23.8441 26.9407 22.4751 27.4336 20.9834C27.9265 19.4918 28.1006 17.9114 27.9445 16.3466V16.3457Z" fill="black"/>
<path d="M24.9437 16.2571C24.7504 14.7876 24.2634 13.3756 23.5136 12.1109C22.7638 10.8462 21.7676 9.75634 20.5882 8.91051C19.4088 8.06469 18.0721 7.48138 16.6628 7.19763C15.2536 6.91388 13.8026 6.93589 12.402 7.26226C11.2658 7.55621 10.2002 8.08788 9.27101 8.82437C8.34183 9.56086 7.56888 10.4865 7 11.544L7.16278 11.6382C7.79778 11.9855 8.42831 12.344 9.05257 12.7144L9.29405 12.8557C9.9056 13.2175 10.5126 13.5873 11.115 13.9652L11.2787 14.0668C11.9342 14.4733 12.5594 14.889 13.1944 15.3111L13.4135 15.4598C13.892 15.785 14.3669 16.1157 14.8382 16.4511C15.0153 13.894 15.1039 11.2936 15.0842 8.70612C15.0842 8.66172 15.0927 8.61776 15.1091 8.57674C15.1256 8.53572 15.1497 8.49844 15.1801 8.46705C15.2105 8.43565 15.2465 8.41075 15.2863 8.39376C15.326 8.37676 15.3685 8.36802 15.4115 8.36802C15.4545 8.36802 15.4971 8.37676 15.5368 8.39376C15.5765 8.41075 15.6126 8.43565 15.643 8.46705C15.6734 8.49844 15.6975 8.53572 15.714 8.57674C15.7304 8.61776 15.7389 8.66172 15.7389 8.70612C15.7585 11.3167 15.67 13.9412 15.4902 16.5222C17.765 15.4429 20.0796 14.4556 22.4287 13.5624C22.4696 13.5442 22.5135 13.5347 22.558 13.5345C22.6024 13.5343 22.6465 13.5434 22.6874 13.5613C22.7284 13.5792 22.7654 13.6054 22.7963 13.6385C22.8271 13.6715 22.8512 13.7107 22.867 13.7536C22.8826 13.7967 22.8896 13.8427 22.8874 13.8887C22.8853 13.9346 22.8741 13.9797 22.8545 14.021C22.8349 14.0623 22.8073 14.0991 22.7735 14.1291C22.7397 14.159 22.7003 14.1815 22.6577 14.1952C20.3234 15.082 18.015 16.0686 15.7818 17.1273C16.2496 17.4663 16.7146 17.8044 17.177 18.1425L17.3961 18.3115C18.0043 18.7734 18.608 19.2464 19.2063 19.7286L19.311 19.8164C19.8717 20.2727 20.4245 20.7328 20.9718 21.203C21.0532 21.2704 21.1355 21.3388 21.2133 21.4099C21.7678 21.8829 22.3134 22.3651 22.8509 22.8574L22.9788 22.972C23.7329 22.0508 24.2963 20.9798 24.6342 19.8251C24.9722 18.6704 25.0775 17.4555 24.9437 16.2571ZM12.4512 20.4381L12.3993 20.33L10.929 17.2862L9.29226 20.2616L9.20998 20.4113C9.11248 20.6359 9.05898 20.8783 9.05257 21.1244C9.04222 21.3681 9.07896 21.6116 9.16065 21.8404C9.24234 22.0693 9.36733 22.2791 9.52835 22.4576C9.68937 22.6361 9.88318 22.7796 10.0985 22.8799C10.3138 22.9802 10.5463 23.0352 10.7824 23.0417C11.0185 23.0482 11.2534 23.0061 11.4736 22.9178C11.6938 22.8295 11.8947 22.6968 12.0647 22.5274C12.2347 22.3581 12.3703 22.1555 12.4637 21.9314C12.5571 21.7073 12.6063 21.4663 12.6086 21.2224C12.6137 20.9517 12.5599 20.6843 12.4512 20.4381ZM17.5759 24.426L17.5231 24.317L16.0564 21.2732L14.4197 24.2496L14.3374 24.3946C14.2134 24.6748 14.1594 24.9826 14.1805 25.2899C14.2016 25.5973 14.297 25.8942 14.4581 26.1535C14.6192 26.4128 14.8407 26.6262 15.1023 26.7741C15.364 26.922 15.6574 26.9997 15.9557 27C16.2539 27.0003 16.5475 26.9233 16.8095 26.776C17.0714 26.6287 17.2934 26.4158 17.455 26.1569C17.6166 25.898 17.7127 25.6013 17.7345 25.294C17.7562 24.9867 17.7029 24.6788 17.5795 24.3983L17.5759 24.426Z" fill="black"/>
<path d="M45.049 7.681H41.737V9.193H44.752V10.237H41.737V13H40.522V6.592H45.049V7.681ZM51.6835 12.253C51.6925 12.532 51.7555 12.811 51.8815 13H50.6305C50.5135 12.811 50.4685 12.55 50.4595 12.235L50.4325 11.533C50.3965 10.714 50.0545 10.489 49.4065 10.489H47.8225V13H46.6075V6.592H49.5145C50.9905 6.592 51.7735 7.321 51.7735 8.401C51.7735 9.139 51.3955 9.688 50.7025 9.931C51.4135 10.156 51.6025 10.633 51.6295 11.299L51.6835 12.253ZM47.8225 9.535H49.4425C50.0995 9.535 50.5225 9.193 50.5225 8.536C50.5225 7.906 50.0995 7.591 49.3975 7.591H47.8225V9.535ZM58.2179 7.681H54.7079V9.193H57.8849V10.237H54.7079V11.911H58.1999V13H53.4929V6.592H58.2179V7.681ZM62.2987 13.144C60.5887 13.144 59.5627 12.361 59.5537 10.885H60.7507C60.7687 11.893 61.4437 12.163 62.3347 12.163C63.1717 12.163 63.6307 11.839 63.6307 11.236C63.6307 10.732 63.2977 10.507 62.3167 10.309L61.7767 10.201C60.5347 9.967 59.7157 9.418 59.7157 8.257C59.7157 7.195 60.5527 6.448 62.0917 6.448C63.8917 6.448 64.6567 7.294 64.7017 8.5H63.5227C63.4777 7.816 63.1267 7.429 62.1097 7.429C61.3357 7.429 60.9577 7.735 60.9577 8.221C60.9577 8.734 61.2547 8.968 62.2087 9.166L62.7667 9.274C64.2787 9.571 64.8907 10.156 64.8907 11.173C64.8907 12.442 63.9007 13.144 62.2987 13.144ZM70.6842 6.592H71.8992V13H70.6842V10.264H67.7052V13H66.4902V6.592H67.7052V9.166H70.6842V6.592ZM43.357 26.144C41.53 26.144 40.252 24.866 40.252 22.796C40.252 20.726 41.503 19.448 43.357 19.448C44.779 19.448 45.985 20.213 46.264 21.797H45.031C44.806 20.897 44.14 20.51 43.357 20.51C42.214 20.51 41.521 21.365 41.521 22.796C41.521 24.236 42.214 25.082 43.357 25.082C44.176 25.082 44.932 24.596 45.076 23.588H46.291C46.111 25.28 44.824 26.144 43.357 26.144ZM50.8775 26.144C48.9515 26.144 47.6735 24.812 47.6735 22.796C47.6735 20.78 48.9515 19.448 50.8775 19.448C52.7945 19.448 54.0725 20.78 54.0725 22.796C54.0725 24.812 52.7945 26.144 50.8775 26.144ZM50.8775 25.073C52.0475 25.073 52.8125 24.209 52.8125 22.796C52.8125 21.383 52.0475 20.519 50.8775 20.519C49.7075 20.519 48.9425 21.383 48.9425 22.796C48.9425 24.209 49.7075 25.073 50.8775 25.073ZM58.1204 26.144C56.4104 26.144 55.3844 25.361 55.3754 23.885H56.5724C56.5904 24.893 57.2654 25.163 58.1564 25.163C58.9934 25.163 59.4524 24.839 59.4524 24.236C59.4524 23.732 59.1194 23.507 58.1384 23.309L57.5984 23.201C56.3564 22.967 55.5374 22.418 55.5374 21.257C55.5374 20.195 56.3744 19.448 57.9134 19.448C59.7134 19.448 60.4784 20.294 60.5234 21.5H59.3444C59.2994 20.816 58.9484 20.429 57.9314 20.429C57.1574 20.429 56.7794 20.735 56.7794 21.221C56.7794 21.734 57.0764 21.968 58.0304 22.166L58.5884 22.274C60.1004 22.571 60.7124 23.156 60.7124 24.173C60.7124 25.442 59.7224 26.144 58.1204 26.144ZM67.3698 19.592H69.1338V26H67.9728V24.047C67.9728 23.075 67.9818 22.031 68.0088 20.87C67.8648 21.356 67.7208 21.788 67.5228 22.346L66.2268 26H65.2278L63.9228 22.346C63.7338 21.797 63.5898 21.365 63.4458 20.888C63.4728 22.04 63.4818 23.084 63.4818 24.047V26H62.3118V19.592H64.0758L65.1828 22.706C65.3718 23.282 65.5698 23.912 65.7318 24.443C65.8938 23.885 66.1008 23.219 66.2988 22.643L67.3698 19.592ZM75.8118 20.681H72.3018V22.193H75.4788V23.237H72.3018V24.911H75.7938V26H71.0868V19.592H75.8118V20.681ZM82.3861 19.592V20.681H80.3341V26H79.1101V20.681H77.0581V19.592H82.3861ZM83.8995 26V19.592H85.1145V26H83.8995ZM89.9021 26.144C88.0751 26.144 86.7971 24.866 86.7971 22.796C86.7971 20.726 88.0481 19.448 89.9021 19.448C91.3241 19.448 92.5301 20.213 92.8091 21.797H91.5761C91.3511 20.897 90.6851 20.51 89.9021 20.51C88.7591 20.51 88.0661 21.365 88.0661 22.796C88.0661 24.236 88.7591 25.082 89.9021 25.082C90.7211 25.082 91.4771 24.596 91.6211 23.588H92.8361C92.6561 25.28 91.3691 26.144 89.9021 26.144ZM96.9276 26.144C95.2176 26.144 94.1916 25.361 94.1826 23.885H95.3796C95.3976 24.893 96.0726 25.163 96.9636 25.163C97.8006 25.163 98.2596 24.839 98.2596 24.236C98.2596 23.732 97.9266 23.507 96.9456 23.309L96.4056 23.201C95.1636 22.967 94.3446 22.418 94.3446 21.257C94.3446 20.195 95.1816 19.448 96.7206 19.448C98.5206 19.448 99.2856 20.294 99.3306 21.5H98.1516C98.1066 20.816 97.7556 20.429 96.7386 20.429C95.9646 20.429 95.5866 20.735 95.5866 21.221C95.5866 21.734 95.8836 21.968 96.8376 22.166L97.3956 22.274C98.9076 22.571 99.5196 23.156 99.5196 24.173C99.5196 25.442 98.5296 26.144 96.9276 26.144Z" fill="black"/>
</svg>
