<svg width="106" height="32" viewBox="0 0 106 32" fill="none" xmlns="http://www.w3.org/2000/svg">
<path d="M9.53143 14.0861C9.45624 13.9691 9.35772 13.868 9.24167 13.7886C9.12562 13.7092 8.99439 13.6531 8.85571 13.6238C8.71702 13.5944 8.57369 13.5923 8.43415 13.6176C8.29461 13.6428 8.16169 13.695 8.04321 13.7709C7.80757 13.9269 7.64415 14.1663 7.58792 14.4378C7.53169 14.7094 7.58713 14.9916 7.74236 15.2239L9.51728 17.9568L9.03064 18.2655C9.03064 18.2655 7.82253 16.5111 7.43586 15.9174C6.34469 14.2409 5.88162 11.6345 6.39939 9.10592C6.43637 8.93719 6.42335 8.76173 6.36185 8.5999C6.30034 8.43806 6.19287 8.29648 6.0519 8.19156C5.91093 8.08665 5.74223 8.02271 5.56536 8.00715C5.3885 7.99159 5.21072 8.02505 5.05263 8.10366C4.9394 8.16083 4.8394 8.2399 4.75879 8.33601C4.67819 8.43212 4.61867 8.54323 4.58391 8.66251C2.9099 14.1969 5.11205 19.5802 7.69144 22.4917C7.83944 22.6591 7.95073 22.854 8.01851 23.0646C8.0863 23.2752 8.10914 23.4971 8.08565 23.7165L7.76783 27L13.2407 26.9359L13.6556 23.8476C13.955 23.3057 14.1026 22.697 14.0837 22.0824C14.0648 21.4677 13.8801 20.8687 13.5481 20.3451L12.3362 18.4267L9.53143 14.0861ZM18.3428 23.843L18.7578 26.9331L24.2306 26.9973L23.9128 23.7129C23.8891 23.4936 23.9118 23.2719 23.9794 23.0615C24.047 22.851 24.1582 22.6562 24.3061 22.4889C26.8892 19.5774 29.0923 14.1942 27.4136 8.65884C27.3466 8.43193 27.1914 8.23921 26.9808 8.1214C26.7702 8.00358 26.5208 7.9699 26.2851 8.02746C26.0494 8.08502 25.846 8.22932 25.7178 8.42988C25.5896 8.63043 25.5467 8.87154 25.5981 9.10226C26.1225 11.6308 25.6642 14.2272 24.5617 15.9147C24.1788 16.5111 22.9697 18.2628 22.9697 18.2628L22.4831 17.954L24.258 15.2203C24.413 14.9881 24.4684 14.7062 24.4124 14.4349C24.3564 14.1636 24.1933 13.9243 23.9581 13.7682C23.8396 13.6921 23.7067 13.6399 23.5672 13.6145C23.4276 13.5892 23.2842 13.5913 23.1455 13.6206C23.0068 13.65 22.8755 13.7061 22.7595 13.7856C22.6434 13.865 22.545 13.9663 22.4699 14.0833L19.6764 18.4258L18.4504 20.3616C18.1217 20.8825 17.9388 21.4778 17.92 22.0884C17.9011 22.6991 18.0469 23.3039 18.3428 23.843Z" fill="black"/>
<path d="M21.8745 6.03816C21.7494 5.62873 21.5237 5.25211 21.2155 4.93819C20.9072 4.62426 20.5247 4.38165 20.0984 4.22961C18.2386 3.55623 16.7042 4.53318 15.936 5.3979C15.1669 4.38783 13.8346 3.58935 12.1375 4.22961C11.6512 4.40479 11.2154 4.6832 10.8645 5.04278C10.5136 5.40236 10.2573 5.83323 10.1159 6.30125C9.97691 6.81963 9.96273 7.3603 10.0744 7.8844C10.1861 8.4085 10.4209 8.903 10.7619 9.33236C11.9748 10.8373 15.5307 13.7746 15.653 13.8887C15.7298 13.9565 15.8304 13.9961 15.936 14C16.034 13.9928 16.1294 13.9678 16.2171 13.9264C16.3403 13.8114 19.8953 10.8751 21.1092 9.36916C21.8745 8.33518 22.1999 7.09146 21.8745 6.03816ZM21.0195 7.59465C21.0055 7.6744 20.9613 7.74681 20.8949 7.79866C20.8284 7.85051 20.7442 7.87834 20.6576 7.87706H20.6043C20.5102 7.86303 20.4258 7.81481 20.3696 7.74293C20.3135 7.67106 20.2901 7.58137 20.3045 7.49346C20.3693 7.24928 20.3777 6.99504 20.329 6.74762C20.2804 6.5002 20.1759 6.26526 20.0225 6.05839C19.7169 5.7391 19.2923 5.54042 18.8352 5.50277C18.7863 5.50214 18.7381 5.49227 18.6934 5.47377C18.6487 5.45527 18.6085 5.42851 18.5752 5.39511C18.5419 5.36171 18.5162 5.32236 18.4997 5.27944C18.4831 5.23653 18.4761 5.19092 18.4789 5.14539C18.4818 5.09986 18.4945 5.05535 18.5164 5.01453C18.5382 4.97371 18.5686 4.93744 18.6059 4.90791C18.6432 4.87838 18.6864 4.8562 18.7331 4.8427C18.7799 4.82921 18.829 4.82468 18.8776 4.82939C19.5357 4.88074 20.1468 5.16792 20.5826 5.63064C20.8019 5.90974 20.9544 6.22953 21.0298 6.56836C21.1052 6.9072 21.1017 7.25719 21.0195 7.59465Z" fill="black"/>
<path d="M44.716 6.592H45.931V13H44.716V10.264H41.737V13H40.522V6.592H41.737V9.166H44.716V6.592ZM52.3489 13L51.8449 11.587H49.0369L48.5419 13H47.2909L49.7299 6.592H51.1519L53.6359 13H52.3489ZM49.4059 10.552H51.4759L51.2239 9.859C50.9989 9.274 50.6929 8.419 50.4319 7.663C50.1709 8.419 49.8649 9.274 49.6489 9.859L49.4059 10.552ZM59.2436 6.592H60.4136V13H59.0636L57.2816 10.147C56.8766 9.508 56.4626 8.842 56.1386 8.221C56.1746 9.355 56.1746 10.381 56.1746 11.326V13H55.0046V6.592H56.3546L58.1456 9.445C58.5056 10.03 58.9556 10.768 59.2796 11.371C59.2526 10.237 59.2436 9.211 59.2436 8.266V6.592ZM64.8126 6.592C66.9006 6.592 68.0256 7.843 68.0256 9.796C68.0256 11.749 66.9006 13 64.8126 13H62.3646V6.592H64.8126ZM64.7946 11.956C66.0366 11.956 66.7656 11.218 66.7656 9.796C66.7656 8.374 66.0366 7.636 64.7946 7.636H63.5796V11.956H64.7946ZM74.765 6.592H76.529V13H75.368V11.047C75.368 10.075 75.377 9.031 75.404 7.87C75.26 8.356 75.116 8.788 74.918 9.346L73.622 13H72.623L71.318 9.346C71.129 8.797 70.985 8.365 70.841 7.888C70.868 9.04 70.877 10.084 70.877 11.047V13H69.707V6.592H71.471L72.578 9.706C72.767 10.282 72.965 10.912 73.127 11.443C73.289 10.885 73.496 10.219 73.694 9.643L74.765 6.592ZM82.9577 13L82.4537 11.587H79.6457L79.1507 13H77.8997L80.3387 6.592H81.7607L84.2447 13H82.9577ZM80.0147 10.552H82.0847L81.8327 9.859C81.6077 9.274 81.3017 8.419 81.0407 7.663C80.7797 8.419 80.4737 9.274 80.2577 9.859L80.0147 10.552ZM88.0614 6.592C90.1494 6.592 91.2744 7.843 91.2744 9.796C91.2744 11.749 90.1494 13 88.0614 13H85.6134V6.592H88.0614ZM88.0434 11.956C89.2854 11.956 90.0144 11.218 90.0144 9.796C90.0144 8.374 89.2854 7.636 88.0434 7.636H86.8284V11.956H88.0434ZM97.6808 7.681H94.1708V9.193H97.3478V10.237H94.1708V11.911H97.6628V13H92.9558V6.592H97.6808V7.681ZM47.488 19.592H48.748L46.975 26H45.607L44.923 23.336C44.743 22.598 44.554 21.824 44.401 21.068C44.248 21.824 44.068 22.598 43.879 23.336L43.195 26H41.836L40.054 19.592H41.323L41.989 22.175C42.187 22.967 42.403 23.804 42.574 24.614C42.745 23.804 42.934 22.967 43.123 22.166L43.78 19.592H45.031L45.688 22.166C45.886 22.967 46.066 23.813 46.228 24.623C46.408 23.813 46.615 22.967 46.813 22.175L47.488 19.592ZM50.2199 26V19.592H51.4349V26H50.2199ZM58.2847 19.592V20.681H56.2327V26H55.0087V20.681H52.9567V19.592H58.2847ZM63.9922 19.592H65.2072V26H63.9922V23.264H61.0132V26H59.7982V19.592H61.0132V22.166H63.9922V19.592ZM71.2067 24.911H74.2577V26H69.9917V19.592H71.2067V24.911ZM78.2554 26.144C76.3294 26.144 75.0514 24.812 75.0514 22.796C75.0514 20.78 76.3294 19.448 78.2554 19.448C80.1724 19.448 81.4504 20.78 81.4504 22.796C81.4504 24.812 80.1724 26.144 78.2554 26.144ZM78.2554 25.073C79.4254 25.073 80.1904 24.209 80.1904 22.796C80.1904 21.383 79.4254 20.519 78.2554 20.519C77.0854 20.519 76.3204 21.383 76.3204 22.796C76.3204 24.209 77.0854 25.073 78.2554 25.073ZM87.037 19.592H88.297L86.002 26H84.58L82.231 19.592H83.527L84.688 22.904C84.895 23.534 85.111 24.218 85.3 24.902C85.48 24.218 85.696 23.534 85.903 22.904L87.037 19.592ZM94.4411 20.681H90.9311V22.193H94.1081V23.237H90.9311V24.911H94.4231V26H89.7161V19.592H94.4411V20.681Z" fill="black"/>
</svg>
