<svg width="36" height="36" viewBox="0 0 36 36" fill="none" xmlns="http://www.w3.org/2000/svg">
<circle cx="18" cy="18" r="18" fill="white"/>
<path d="M9.47416 15.4449C9.47416 15.4449 8.6371 15.4449 7.87731 16.1942V13.1768H6V21.1029H7.89734V20.4826C7.89734 20.4826 8.3452 21.3015 9.47416 21.3015C9.47416 21.3015 12.1213 21.2029 12.1213 18.3435C12.1213 18.3435 12.024 15.4449 9.47416 15.4449ZM9.06064 19.6276C8.39385 19.6276 7.85298 19.0797 7.85298 18.4044C7.85298 17.729 8.39385 17.1826 9.06064 17.1826C9.72743 17.1826 10.2669 17.7304 10.2669 18.4044C10.2669 19.0783 9.726 19.6276 9.06064 19.6276Z" fill="#757575"/>
<path d="M12.725 13V14.8334C12.725 14.8334 13.5821 14.7942 13.5821 16.4102V21.103H15.3921V15.9768C15.3921 15.9768 15.4694 13 12.725 13Z" fill="#757575"/>
<path d="M19.8181 15.4697C19.8181 15.4697 16.7146 15.4697 16.7146 18.4045C16.7146 18.4045 16.6144 21.3002 19.8181 21.3002C19.8181 21.3002 22.9933 21.2959 22.9933 18.4045C22.9933 18.4045 23.0963 15.4697 19.8181 15.4697ZM19.8181 19.6277C19.1514 19.6277 18.6105 19.0799 18.6105 18.4045C18.6105 17.7292 19.1514 17.1828 19.8181 17.1828C20.4849 17.1828 21.0244 17.7306 21.0244 18.4045C21.0244 19.0785 20.4835 19.6277 19.8181 19.6277Z" fill="#757575"/>
<path d="M28.1741 15.6621V16.1939C28.1741 16.1939 27.6346 15.4693 26.5987 15.4693C26.5987 15.4693 23.9415 15.3563 23.9415 18.3838C23.9415 18.3838 23.9115 21.2056 26.5257 21.2056C26.5257 21.2056 27.5917 21.2491 28.1741 20.481V20.9244C28.1741 20.9244 28.3057 22.3143 26.9779 22.3143H26.5257V23.9998H27.2555C27.2555 23.9998 29.9999 24.0303 29.9999 21.0288V15.6621H28.1755H28.1741ZM27.0523 19.6273C26.3855 19.6273 25.846 19.0795 25.846 18.4041C25.846 17.7287 26.3855 17.1824 27.0523 17.1824C27.7191 17.1824 28.2585 17.7302 28.2585 18.4041C28.2585 19.078 27.7176 19.6273 27.0523 19.6273Z" fill="#757575"/>
</svg>
