<svg width="36" height="36" viewBox="0 0 36 36" fill="none" xmlns="http://www.w3.org/2000/svg">
<circle cx="18" cy="18" r="18" fill="white"/>
<path d="M26.6242 13.9087C26.4104 13.162 25.8185 12.5763 25.0561 12.3692C23.6522 12 18.0086 12 18.0086 12C18.0086 12 12.3757 11.9912 10.9572 12.3692C10.1987 12.5768 9.60396 13.162 9.39239 13.9087C9.12625 15.3242 8.99402 16.7568 9.00021 18.1961C8.99739 19.626 9.12906 21.0564 9.39239 22.463C9.60396 23.2097 10.1987 23.7954 10.9572 24.0058C12.3611 24.375 18.0086 24.375 18.0086 24.375C18.0086 24.375 23.6381 24.375 25.0561 24.0058C25.8185 23.7954 26.4104 23.2103 26.6242 22.463C26.8825 21.0564 27.0085 19.626 26.9995 18.1961C27.0085 16.7568 26.8853 15.3242 26.6242 13.9087ZM16.2058 20.846V15.5345L20.9035 18.1961L16.2058 20.846Z" fill="#757575"/>
</svg>
