<?xml version="1.0"?>
<svg xmlns="http://www.w3.org/2000/svg" width="24" height="24" viewBox="0 0 24 24" fill="none">
<g id="Icon/Tab/search">
<path id="Vector 1 (Stroke)" fill-rule="evenodd" clip-rule="evenodd" d="M14.5404 14.5405C14.7942 14.2866 15.2058 14.2866 15.4596 14.5405L18.9596 18.0405C19.2134 18.2943 19.2134 18.7059 18.9596 18.9597C18.7058 19.2136 18.2942 19.2136 18.0404 18.9597L14.5404 15.4597C14.2865 15.2059 14.2865 14.7943 14.5404 14.5405Z" fill="#222222"/>
<path id="Ellipse 18 (Stroke)" fill-rule="evenodd" clip-rule="evenodd" d="M11.1071 15.9143C13.7621 15.9143 15.9143 13.7621 15.9143 11.1071C15.9143 8.45223 13.7621 6.3 11.1071 6.3C8.45223 6.3 6.3 8.45223 6.3 11.1071C6.3 13.7621 8.45223 15.9143 11.1071 15.9143ZM11.1071 17.2143C14.48 17.2143 17.2143 14.48 17.2143 11.1071C17.2143 7.73426 14.48 5 11.1071 5C7.73426 5 5 7.73426 5 11.1071C5 14.48 7.73426 17.2143 11.1071 17.2143Z" fill="#222222"/>
</g>
</svg>
