<svg width="18" height="18" viewBox="0 0 18 18" fill="none" xmlns="http://www.w3.org/2000/svg">
<circle cx="9" cy="9" r="9" fill="#BDBDBD"/>
<path d="M6.37155 6.81581L11.5849 12.0292C11.7309 12.1752 11.966 12.178 12.1081 12.0358C12.2507 11.8933 12.2478 11.6582 12.1019 11.5122L6.8885 6.29886C6.74251 6.15288 6.50743 6.15005 6.36491 6.29257C6.22274 6.43474 6.22556 6.66982 6.37155 6.81581Z" fill="white"/>
<path d="M12.0292 6.81582L6.81581 12.0292C6.66982 12.1752 6.43474 12.178 6.29257 12.0358C6.15005 11.8933 6.15288 11.6582 6.29886 11.5122L11.5122 6.29887C11.6582 6.15288 11.8933 6.15006 12.0358 6.29258C12.178 6.43475 12.1752 6.66983 12.0292 6.81582Z" fill="white"/>
<path d="M6.37155 6.81581L11.5849 12.0292C11.7309 12.1752 11.966 12.178 12.1081 12.0358C12.2507 11.8933 12.2478 11.6582 12.1019 11.5122L6.8885 6.29886C6.74251 6.15288 6.50743 6.15005 6.36491 6.29257C6.22274 6.43474 6.22556 6.66982 6.37155 6.81581Z" stroke="white" stroke-width="0.5"/>
<path d="M12.0292 6.81582L6.81581 12.0292C6.66982 12.1752 6.43474 12.178 6.29257 12.0358C6.15005 11.8933 6.15288 11.6582 6.29886 11.5122L11.5122 6.29887C11.6582 6.15288 11.8933 6.15006 12.0358 6.29258C12.178 6.43475 12.1752 6.66983 12.0292 6.81582Z" stroke="white" stroke-width="0.5"/>
</svg>
