<svg width="20" height="19" viewBox="0 0 20 19" fill="none" xmlns="http://www.w3.org/2000/svg">
<mask id="path-1-inside-1" fill="white">
<path d="M7.14288 8.57139H8.57145L7.88723 6.66663L7.14288 8.57139Z"/>
</mask>
<path d="M7.14288 8.57139L6.21148 8.20741L5.67846 9.57139H7.14288V8.57139ZM8.57145 8.57139V9.57139H9.99324L9.51258 8.23332L8.57145 8.57139ZM7.88723 6.66663L8.82835 6.32856L7.92664 3.81835L6.95582 6.30265L7.88723 6.66663ZM7.14288 9.57139H8.57145V7.57139H7.14288V9.57139ZM9.51258 8.23332L8.82835 6.32856L6.94611 7.00469L7.63033 8.90946L9.51258 8.23332ZM6.95582 6.30265L6.21148 8.20741L8.07429 8.93536L8.81864 7.0306L6.95582 6.30265Z" fill="#381E1F" mask="url(#path-1-inside-1)"/>
<path d="M10 0C4.47658 0 0 3.48568 0 7.78571C0 10.5841 1.89771 13.0366 4.74426 14.4087C4.53394 15.1784 3.98662 17.1954 3.87667 17.6261C3.74044 18.1627 4.07505 18.1557 4.29493 18.0121C4.46702 17.8991 7.03394 16.1786 8.14292 15.4373C8.74522 15.5243 9.36424 15.5714 10 15.5714C15.5234 15.5714 20 12.0857 20 7.78571C20.0024 3.48568 15.5234 0 10 0ZM5.12428 9.79098C5.12667 10.2641 4.05593 10.257 4.05593 9.78392C4.06071 9.13432 4.05593 6.35001 4.05593 6.35001H3.02581C2.42113 6.35001 2.42113 5.37798 3.02342 5.37798C3.02342 5.37798 5.4326 5.39681 6.1544 5.39681C6.79493 5.39681 6.79254 6.38767 6.1544 6.38767C5.47562 6.38767 5.12906 6.38532 5.12906 6.38532L5.12428 9.79098ZM9.05832 9.91101C8.80736 9.26142 8.87189 9.23082 8.87189 9.23082H6.98853L6.78298 9.93925C6.5631 10.4359 5.61663 10.031 5.83652 9.53444C6.14006 8.84718 7.05545 6.25116 7.30879 5.70277C7.40918 5.48624 7.64579 5.39916 7.88719 5.39916C8.17878 5.39916 8.47992 5.52625 8.56596 5.70277C8.74761 6.08641 9.74904 8.79305 10.0382 9.54385C10.239 10.0734 9.26147 10.4382 9.05832 9.91101ZM12.8776 10.1487C12.3948 10.1487 11.3026 10.1534 10.8102 10.1534C10.3179 10.1534 10.4015 9.58857 10.4015 9.58857C10.4015 9.58857 10.3991 6.74777 10.3967 5.86517C10.3967 5.5545 10.674 5.39916 10.9536 5.39916C11.2309 5.39916 11.5105 5.5545 11.5105 5.86282C11.5129 6.50064 11.5081 9.12962 11.5081 9.12962C11.5081 9.12962 12.3901 9.13432 12.8752 9.13432C13.358 9.13668 13.3604 10.1487 12.8776 10.1487ZM16.2022 10.0711L14.8446 8.24702L14.5339 8.49179C14.5339 8.49179 14.5339 9.39322 14.5339 9.86629C14.5339 10.2758 13.4775 10.2758 13.4775 9.86629C13.4775 9.6074 13.5014 6.1123 13.4895 5.72396C13.4847 5.50978 13.7619 5.40151 14.032 5.40151C14.2854 5.40151 14.5339 5.49801 14.5387 5.69571C14.5531 6.22057 14.5387 7.16907 14.5387 7.16907C14.5387 7.16907 16.0707 5.65806 16.2882 5.44623C16.5129 5.22499 17.2108 5.91695 16.9837 6.13584C16.5989 6.51241 15.619 7.55506 15.619 7.55506L17.0602 9.42382C17.3399 9.78392 16.4771 10.4265 16.2022 10.0711Z" fill="#381E1F"/>
</svg>
