<svg width="36" height="36" viewBox="0 0 36 36" fill="none" xmlns="http://www.w3.org/2000/svg">
<circle cx="18" cy="18" r="18" fill="white"/>
<path d="M9 16.9963C9 12.5811 13.0291 9 18 9C22.9709 9 27 12.5811 27 16.9987C27 21.4139 22.9709 24.995 18 24.995C17.3958 24.995 16.8038 24.941 16.2313 24.8399L16.1579 24.8094L12.8645 26.956C12.7153 27.0641 12.5 26.9607 12.5 26.7798L12.3808 23.2397L12.371 23.235C10.4213 21.8158 9 20.2578 9 16.9963Z" fill="#757575"/>
<path d="M15.828 18.57C16.5646 18.57 17.193 18.1784 17.3828 17.5747H18.4703C18.2051 18.7386 17.1849 19.5 15.828 19.5C14.2508 19.5 13 18.454 13 17C13 15.5442 14.2508 14.5 15.828 14.5C17.1991 14.5 18.2255 15.2777 18.4785 16.4616H17.393C17.2277 15.818 16.5768 15.4173 15.828 15.4173C14.767 15.4173 14.061 16.0899 14.061 17C14.061 17.9119 14.8629 18.57 15.828 18.57ZM23 19.4057H22.0022V17.4061C22.0022 16.9456 21.7003 16.6991 21.2371 16.6991C20.7188 16.6991 20.3862 16.9801 20.3862 17.5511V19.4057H19.3885V14.5145H20.3862V16.3546C20.625 16.0319 21.0126 15.8742 21.537 15.8742C21.9635 15.8742 22.3103 15.9975 22.5817 16.2513C22.8613 16.5051 23 16.8495 23 17.2955V19.4057Z" fill="white"/>
</svg>
