<svg width="32" height="32" viewBox="0 0 32 32" fill="none" xmlns="http://www.w3.org/2000/svg">
<path fill-rule="evenodd" clip-rule="evenodd" d="M14.714 9.41096C14.9703 9.66724 14.9703 10.0828 14.714 10.339L9.70932 15.3438H23.875C24.2374 15.3438 24.5312 15.6376 24.5312 16C24.5312 16.3624 24.2374 16.6562 23.875 16.6562H9.70932L14.714 21.661C14.9703 21.9172 14.9703 22.3328 14.714 22.589C14.4577 22.8453 14.0422 22.8453 13.786 22.589L8.27967 17.0828C7.68168 16.4848 7.68168 15.5152 8.27967 14.9172L13.786 9.41096C14.0422 9.15468 14.4577 9.15468 14.714 9.41096Z" fill="#222222"/>
<path fill-rule="evenodd" clip-rule="evenodd" d="M14.714 9.41096C14.9703 9.66724 14.9703 10.0828 14.714 10.339L9.70932 15.3438H23.875C24.2374 15.3438 24.5312 15.6376 24.5312 16C24.5312 16.3624 24.2374 16.6562 23.875 16.6562H9.70932L14.714 21.661C14.9703 21.9172 14.9703 22.3328 14.714 22.589C14.4577 22.8453 14.0422 22.8453 13.786 22.589L8.27967 17.0828C7.68168 16.4848 7.68168 15.5152 8.27967 14.9172L13.786 9.41096C14.0422 9.15468 14.4577 9.15468 14.714 9.41096Z" fill="black" fill-opacity="0.2"/>
</svg>
