<svg width="40" height="40" viewBox="0 0 40 40" fill="none" xmlns="http://www.w3.org/2000/svg">
<rect x="0.5" y="0.5" width="39" height="39" rx="9.5" fill="white" stroke="#DFDFDF"/>
<path d="M7 17.154V23.6283H11.9757V21.9693H9.04234V17.154H7Z" fill="#222222"/>
<path d="M18.8182 21.1255C18.8182 22.9212 17.8251 23.7823 15.8014 23.7823C13.7781 23.7823 12.775 22.9212 12.775 21.1255V17.154H14.8173V20.6813C14.8173 21.3432 14.8173 22.168 15.8104 22.168C16.7759 22.168 16.7759 21.3429 16.7759 20.6813V17.154H18.8179V21.1255H18.8182Z" fill="#222222"/>
<path d="M21.9153 21.4524C21.9153 21.6156 21.9433 21.7604 21.9897 21.8784C22.1382 22.2684 22.5841 22.3498 22.9645 22.3498C23.2985 22.3498 23.8095 22.2413 23.8095 21.7604C23.8095 21.425 23.5215 21.3344 22.3791 21.017C21.3303 20.7267 20.1326 20.4459 20.1326 19.1399C20.1326 17.6437 21.4414 17 22.8063 17C24.2446 17 25.5167 17.5351 25.5732 19.1128H23.6416C23.6786 18.8679 23.5661 18.7045 23.4003 18.5963C23.2338 18.4783 23.0015 18.4328 22.7973 18.4328C22.5183 18.4328 22.0635 18.5051 22.0635 18.8679C22.1005 19.3308 23.0479 19.4302 23.9853 19.6842C24.9231 19.9379 25.8518 20.3642 25.8518 21.5521C25.8518 23.2386 24.2636 23.7826 22.788 23.7826C22.0361 23.7826 19.892 23.5194 19.873 21.4524H21.9153Z" fill="#222222"/>
<path d="M30.958 17.154V19.4027H29.0448V17.154H27.0025V23.6283H29.0448V21.0621H30.958V23.6283H33V17.154H30.958Z" fill="#222222"/>
</svg>
