<svg width="61" height="16" viewBox="0 0 61 16" fill="none" xmlns="http://www.w3.org/2000/svg">
<path d="M0 0.3632V15.636H11.6618V11.7224H4.78673V0.3632H0Z" fill="#222222"/>
<path d="M0 0.3632V15.636H11.6618V11.7224H4.78673V0.3632H0Z" fill="black" fill-opacity="0.2"/>
<path d="M27.6989 9.732C27.6989 13.968 25.3713 15.9992 20.6284 15.9992C15.8863 15.9992 13.5351 13.968 13.5351 9.732V0.3632H18.3218V8.684C18.3218 10.2456 18.3218 12.1912 20.6495 12.1912C22.9122 12.1912 22.9122 10.2448 22.9122 8.684V0.3632H27.6981V9.732H27.6989Z" fill="#222222"/>
<path d="M27.6989 9.732C27.6989 13.968 25.3713 15.9992 20.6284 15.9992C15.8863 15.9992 13.5351 13.968 13.5351 9.732V0.3632H18.3218V8.684C18.3218 10.2456 18.3218 12.1912 20.6495 12.1912C22.9122 12.1912 22.9122 10.2448 22.9122 8.684V0.3632H27.6981V9.732H27.6989Z" fill="black" fill-opacity="0.2"/>
<path d="M34.9577 10.5032C34.9577 10.888 35.0234 11.2296 35.1322 11.508C35.4802 12.428 36.5252 12.62 37.4168 12.62C38.1997 12.62 39.3972 12.364 39.3972 11.2296C39.3972 10.4384 38.7222 10.2248 36.0449 9.476C33.5866 8.7912 30.7795 8.1288 30.7795 5.048C30.7795 1.5184 33.847 0 37.046 0C40.417 0 43.3986 1.2624 43.5308 4.984H39.0037C39.0905 4.4064 38.8269 4.0208 38.4382 3.7656C38.048 3.4872 37.5036 3.38 37.0249 3.38C36.371 3.38 35.305 3.5504 35.305 4.4064C35.3918 5.4984 37.6123 5.7328 39.8094 6.332C42.0072 6.9304 44.1839 7.936 44.1839 10.7384C44.1839 14.7168 40.4616 16 37.003 16C35.2409 16 30.2156 15.3792 30.171 10.5032H34.9577Z" fill="#222222"/>
<path d="M34.9577 10.5032C34.9577 10.888 35.0234 11.2296 35.1322 11.508C35.4802 12.428 36.5252 12.62 37.4168 12.62C38.1997 12.62 39.3972 12.364 39.3972 11.2296C39.3972 10.4384 38.7222 10.2248 36.0449 9.476C33.5866 8.7912 30.7795 8.1288 30.7795 5.048C30.7795 1.5184 33.847 0 37.046 0C40.417 0 43.3986 1.2624 43.5308 4.984H39.0037C39.0905 4.4064 38.8269 4.0208 38.4382 3.7656C38.048 3.4872 37.5036 3.38 37.0249 3.38C36.371 3.38 35.305 3.5504 35.305 4.4064C35.3918 5.4984 37.6123 5.7328 39.8094 6.332C42.0072 6.9304 44.1839 7.936 44.1839 10.7384C44.1839 14.7168 40.4616 16 37.003 16C35.2409 16 30.2156 15.3792 30.171 10.5032H34.9577Z" fill="black" fill-opacity="0.2"/>
<path d="M56.1516 0.3632V5.668H51.6675V0.3632H46.8807V15.636H51.6675V9.5824H56.1516V15.636H60.9375V0.3632H56.1516Z" fill="#222222"/>
<path d="M56.1516 0.3632V5.668H51.6675V0.3632H46.8807V15.636H51.6675V9.5824H56.1516V15.636H60.9375V0.3632H56.1516Z" fill="black" fill-opacity="0.2"/>
</svg>
