<svg width="104" height="32" viewBox="0 0 104 32" fill="none" xmlns="http://www.w3.org/2000/svg">
<path d="M28.8071 9.41286C28.9638 9.41286 29.1189 9.38166 29.2636 9.32103C29.4083 9.2604 29.5399 9.17153 29.6506 9.05951C29.7614 8.94748 29.8493 8.81448 29.9092 8.66811C29.9691 8.52174 30 8.36486 30 8.20643C30 8.048 29.9691 7.89112 29.9092 7.74475C29.8493 7.59838 29.7614 7.46538 29.6506 7.35336C29.5399 7.24133 29.4083 7.15246 29.2636 7.09183C29.1189 7.03121 28.9638 7 28.8071 7C28.4908 7 28.1874 7.12711 27.9637 7.35336C27.74 7.57961 27.6143 7.88647 27.6143 8.20643C27.6143 8.5264 27.74 8.83326 27.9637 9.05951C28.1874 9.28576 28.4908 9.41286 28.8071 9.41286ZM10.708 21.2011C10.57 20.8663 10.3677 20.5625 10.1129 20.3073C9.85798 20.0521 9.55558 19.8506 9.22317 19.7143C8.89077 19.5781 8.53494 19.5099 8.1763 19.5137C7.81766 19.5174 7.46331 19.5931 7.13378 19.7363C6.80425 19.8795 6.50607 20.0874 6.25649 20.3479C6.00692 20.6084 5.81092 20.9164 5.67982 21.2541C5.54872 21.5917 5.48514 21.9523 5.49275 22.315C5.50035 22.6776 5.579 23.0351 5.72414 23.3669C6.01319 24.0275 6.54823 24.5461 7.2131 24.8102C7.87797 25.0742 8.61898 25.0624 9.27526 24.7772C9.93154 24.492 10.4501 23.9565 10.7184 23.287C10.9866 22.6175 10.9829 21.8679 10.708 21.2011ZM7.57159 21.4874C7.47011 21.5248 7.37837 21.5851 7.30331 21.6637C7.22824 21.7422 7.17181 21.837 7.13828 21.9409C7.09308 22.067 7.07415 22.2012 7.08267 22.3351C7.0912 22.469 7.127 22.5996 7.18782 22.7188C7.23037 22.7941 7.24189 22.8833 7.21989 22.967C7.19788 23.0508 7.14412 23.1225 7.07026 23.1664C6.99555 23.2092 6.90716 23.2205 6.82428 23.1978C6.74141 23.175 6.67077 23.1201 6.62771 23.045C6.51969 22.8432 6.45509 22.6207 6.43815 22.3919C6.42122 22.1631 6.45234 21.9333 6.52946 21.7175C6.59605 21.5248 6.70389 21.3494 6.84528 21.2038C6.98667 21.0581 7.15812 20.9459 7.34738 20.875C7.38823 20.8578 7.43212 20.849 7.4764 20.8494C7.52067 20.8498 7.56441 20.8593 7.60497 20.8772C7.64553 20.8952 7.68207 20.9213 7.71238 20.9539C7.74269 20.9865 7.76613 21.0251 7.78131 21.0671C7.79648 21.1092 7.80306 21.1539 7.80065 21.1987C7.79824 21.2434 7.78689 21.2871 7.76729 21.3273C7.74769 21.3674 7.72024 21.4031 7.6866 21.4323C7.65296 21.4614 7.61384 21.4833 7.57159 21.4967V21.4874ZM4.59552 20.2245C5.01868 20.2245 5.42451 20.0544 5.72373 19.7518C6.02294 19.4492 6.19104 19.0388 6.19104 18.6108C6.19104 18.1828 6.02294 17.7724 5.72373 17.4697C5.42451 17.1671 5.01868 16.9971 4.59552 16.9971C4.17236 16.9971 3.76654 17.1671 3.46732 17.4697C3.1681 17.7724 3 18.1828 3 18.6108C3 19.0388 3.1681 19.4492 3.46732 19.7518C3.76654 20.0544 4.17236 20.2245 4.59552 20.2245Z" fill="black"/>
<path d="M27.9706 15.2927C27.9706 15.2927 27.8484 14.5019 27.7968 14.1861C24.4484 18.5775 21.2032 19.8889 16.4422 20.6973H16.3873C16.3033 20.7043 16.2198 20.6789 16.1552 20.6267C16.0907 20.5745 16.0503 20.4998 16.043 20.419C16.0358 20.3382 16.0622 20.2579 16.1164 20.1959C16.1707 20.1338 16.2484 20.095 16.3324 20.088C21.0818 19.2804 24.2871 17.9714 27.6114 13.3721L27.4035 12.5173C27.3173 12.1528 27.1773 11.8019 26.9878 11.4754C26.7396 11.0651 26.4201 10.6986 26.0432 10.392C25.7703 10.5337 25.4756 10.6325 25.1702 10.6846C25.0151 10.709 24.8583 10.7219 24.7012 10.723C24.0232 10.7205 23.3681 10.4871 22.8521 10.0642C22.3361 9.64132 21.9926 9.05629 21.8825 8.41296C21.884 8.38659 21.884 8.36016 21.8825 8.3338C21.6609 8.27956 21.4374 8.23289 21.2123 8.19387C19.1452 7.86952 17.0311 7.95283 14.9985 8.43875C12.9659 8.92467 11.0573 9.80305 9.38873 11.0205C8.32028 11.7993 6.64901 13.4129 6.19835 14.6803C5.86326 15.6262 6.02457 16.1115 6.16176 17.0607C6.50031 17.3226 6.75106 17.6746 6.88268 18.0729C7.0143 18.4711 7.02094 18.8977 6.90178 19.2996L7.03814 19.2356C7.57953 19.0123 8.17294 18.9315 8.7575 19.0016C9.34207 19.0716 9.89674 19.2899 10.3646 19.634C10.8325 19.9782 11.1968 20.4358 11.4201 20.9601C11.6434 21.4843 11.7177 22.0562 11.6354 22.6171C13.6234 23.0385 15.6747 23.1129 17.6902 22.8362L17.8149 22.8154C19.7356 22.5044 21.5919 21.8986 23.3126 21.0211C25.161 20.0464 28.3389 17.6292 27.9706 15.2927ZM13.5154 17.977C11.4782 17.977 9.64898 17.6228 8.30698 16.9319C8.25178 16.9027 8.20677 16.8584 8.17756 16.8047C8.14834 16.751 8.13622 16.6902 8.14269 16.63C8.14916 16.5697 8.17395 16.5125 8.21396 16.4657C8.25397 16.4189 8.30743 16.3844 8.36767 16.3666C8.44898 16.3432 8.5366 16.3519 8.6113 16.3906C10.5777 17.4005 13.6983 17.6436 16.9593 17.0383L17.0375 17.0199C20.6361 16.3498 23.6585 14.6251 24.7395 12.6285C24.7799 12.5558 24.8487 12.5016 24.9308 12.4778C25.0128 12.454 25.1013 12.4624 25.1768 12.5013C25.2523 12.5402 25.3087 12.6064 25.3335 12.6853C25.3583 12.7642 25.3495 12.8493 25.309 12.9219C24.14 15.0793 20.9438 16.9295 17.1597 17.6348H17.0807C15.9061 17.8567 14.7124 17.9713 13.5154 17.977Z" fill="black"/>
<path d="M26.9662 7.09436C26.8791 6.56479 26.6239 6.0773 26.2384 5.70397C25.8529 5.33064 25.3575 5.0913 24.8255 5.02134C24.2935 4.95137 23.7531 5.0545 23.2842 5.31547C22.8153 5.57643 22.4428 5.98139 22.2218 6.47045C22.0008 6.95951 21.9431 7.50671 22.0571 8.03114C22.1711 8.55557 22.4508 9.02939 22.8549 9.38253C23.2589 9.73567 23.7659 9.94939 24.3008 9.99208C24.8357 10.0348 25.3702 9.90416 25.8251 9.61957C26.2438 9.35883 26.5757 8.9797 26.7789 8.53017C26.982 8.08065 27.0472 7.58096 26.9662 7.09436ZM23.9614 6.68345C23.8678 6.69393 23.7777 6.7252 23.6977 6.77496C23.6177 6.82473 23.5499 6.89174 23.4992 6.97109C23.4327 7.0706 23.3878 7.18288 23.3672 7.30075C23.3466 7.41862 23.3509 7.53948 23.3796 7.65562C23.3948 7.70071 23.4004 7.74848 23.3959 7.79585C23.3915 7.84321 23.3773 7.88913 23.354 7.93065C23.3308 7.97217 23.2992 8.00837 23.2611 8.03692C23.2231 8.06546 23.1795 8.08573 23.1331 8.09642C23.088 8.11143 23.0403 8.11687 22.993 8.11239C22.9457 8.10792 22.8998 8.09362 22.8584 8.07042C22.8169 8.04722 22.7807 8.01562 22.7521 7.97765C22.7236 7.93967 22.7032 7.89615 22.6924 7.84987C22.637 7.63588 22.6275 7.41258 22.6645 7.19465C22.7015 6.97672 22.7842 6.76909 22.9072 6.5854C23.0153 6.41971 23.1588 6.28008 23.3273 6.17656C23.4959 6.07305 23.6854 6.00823 23.882 5.98678C23.9763 5.97588 24.0712 6.00292 24.1456 6.06194C24.22 6.12096 24.2679 6.20713 24.2788 6.3015C24.2897 6.39586 24.2627 6.49069 24.2037 6.56513C24.1447 6.63956 24.0585 6.6875 23.9642 6.6984L23.9614 6.68345Z" fill="black"/>
<path d="M44.761 6.592H45.931V13H44.581L42.799 10.147C42.394 9.508 41.98 8.842 41.656 8.221C41.692 9.355 41.692 10.381 41.692 11.326V13H40.522V6.592H41.872L43.663 9.445C44.023 10.03 44.473 10.768 44.797 11.371C44.77 10.237 44.761 9.211 44.761 8.266V6.592ZM52.3577 13L51.8537 11.587H49.0457L48.5507 13H47.2997L49.7387 6.592H51.1607L53.6447 13H52.3577ZM49.4147 10.552H51.4847L51.2327 9.859C51.0077 9.274 50.7017 8.419 50.4407 7.663C50.1797 8.419 49.8737 9.274 49.6577 9.859L49.4147 10.552ZM60.7374 6.592L58.1004 9.202L60.7374 13H59.2884L57.2364 10.012L56.2284 10.993V13H55.0134V6.592H56.2284V9.616L59.2254 6.592H60.7374ZM66.8435 7.681H63.3335V9.193H66.5105V10.237H63.3335V11.911H66.8255V13H62.1185V6.592H66.8435V7.681ZM70.9421 6.592C73.0301 6.592 74.1551 7.843 74.1551 9.796C74.1551 11.749 73.0301 13 70.9421 13H68.4941V6.592H70.9421ZM70.9241 11.956C72.1661 11.956 72.8951 11.218 72.8951 9.796C72.8951 8.374 72.1661 7.636 70.9241 7.636H69.7091V11.956H70.9241ZM43.339 19.592C44.815 19.592 45.607 20.438 45.607 21.68C45.607 22.913 44.815 23.759 43.339 23.759H41.737V26H40.522V19.592H43.339ZM43.285 22.715C43.996 22.715 44.383 22.346 44.383 21.68C44.383 21.014 43.996 20.636 43.285 20.636H41.737V22.715H43.285ZM52.3339 25.253C52.3429 25.532 52.4059 25.811 52.5319 26H51.2809C51.1639 25.811 51.1189 25.55 51.1099 25.235L51.0829 24.533C51.0469 23.714 50.7049 23.489 50.0569 23.489H48.4729V26H47.2579V19.592H50.1649C51.6409 19.592 52.4239 20.321 52.4239 21.401C52.4239 22.139 52.0459 22.688 51.3529 22.931C52.0639 23.156 52.2529 23.633 52.2799 24.299L52.3339 25.253ZM48.4729 22.535H50.0929C50.7499 22.535 51.1729 22.193 51.1729 21.536C51.1729 20.906 50.7499 20.591 50.0479 20.591H48.4729V22.535ZM57.0773 26.144C55.1513 26.144 53.8733 24.812 53.8733 22.796C53.8733 20.78 55.1513 19.448 57.0773 19.448C58.9943 19.448 60.2723 20.78 60.2723 22.796C60.2723 24.812 58.9943 26.144 57.0773 26.144ZM57.0773 25.073C58.2473 25.073 59.0123 24.209 59.0123 22.796C59.0123 21.383 58.2473 20.519 57.0773 20.519C55.9073 20.519 55.1423 21.383 55.1423 22.796C55.1423 24.209 55.9073 25.073 57.0773 25.073ZM64.3995 19.592C66.4875 19.592 67.6125 20.843 67.6125 22.796C67.6125 24.749 66.4875 26 64.3995 26H61.9515V19.592H64.3995ZM64.3815 24.956C65.6235 24.956 66.3525 24.218 66.3525 22.796C66.3525 21.374 65.6235 20.636 64.3815 20.636H63.1665V24.956H64.3815ZM71.8859 26.135C70.2749 26.135 69.2039 25.253 69.2039 23.588V19.592H70.4189V23.597C70.4189 24.605 70.9679 25.082 71.8859 25.082C72.8039 25.082 73.3529 24.605 73.3529 23.597V19.592H74.5679V23.588C74.5679 25.253 73.5329 26.135 71.8859 26.135ZM79.2603 26.144C77.4333 26.144 76.1553 24.866 76.1553 22.796C76.1553 20.726 77.4063 19.448 79.2603 19.448C80.6823 19.448 81.8883 20.213 82.1673 21.797H80.9343C80.7093 20.897 80.0433 20.51 79.2603 20.51C78.1173 20.51 77.4243 21.365 77.4243 22.796C77.4243 24.236 78.1173 25.082 79.2603 25.082C80.0793 25.082 80.8353 24.596 80.9793 23.588H82.1943C82.0143 25.28 80.7273 26.144 79.2603 26.144ZM88.331 19.592V20.681H86.279V26H85.055V20.681H83.003V19.592H88.331ZM92.1077 26.144C90.3977 26.144 89.3717 25.361 89.3627 23.885H90.5597C90.5777 24.893 91.2527 25.163 92.1437 25.163C92.9807 25.163 93.4397 24.839 93.4397 24.236C93.4397 23.732 93.1067 23.507 92.1257 23.309L91.5857 23.201C90.3437 22.967 89.5247 22.418 89.5247 21.257C89.5247 20.195 90.3617 19.448 91.9007 19.448C93.7007 19.448 94.4657 20.294 94.5107 21.5H93.3317C93.2867 20.816 92.9357 20.429 91.9187 20.429C91.1447 20.429 90.7667 20.735 90.7667 21.221C90.7667 21.734 91.0637 21.968 92.0177 22.166L92.5757 22.274C94.0877 22.571 94.6997 23.156 94.6997 24.173C94.6997 25.442 93.7097 26.144 92.1077 26.144Z" fill="black"/>
</svg>
