<svg width="112" height="32" viewBox="0 0 112 32" fill="none" xmlns="http://www.w3.org/2000/svg">
<path fill-rule="evenodd" clip-rule="evenodd" d="M27.2992 7.23646C21.7468 10.2003 18.325 16.5364 18.29 16.6008C18.2456 16.6835 18.1712 16.7448 18.083 16.7715C17.9948 16.7982 17.9 16.7881 17.819 16.7434C17.7788 16.7218 17.7433 16.6923 17.7144 16.6564C17.6855 16.6206 17.6639 16.5791 17.6508 16.5346C17.6377 16.49 17.6334 16.4432 17.6381 16.3969C17.6428 16.3507 17.6565 16.3058 17.6784 16.265C17.8208 15.9983 21.2319 9.67873 26.9741 6.61186C27.0559 6.56808 27.1511 6.55908 27.2392 6.58679C27.3273 6.6145 27.4013 6.6767 27.4452 6.75996C27.5348 6.9329 27.4694 7.14631 27.2992 7.23646ZM13.6117 18.343C13.5272 18.3703 13.4355 18.3622 13.3567 18.3205C13.2779 18.2789 13.2183 18.207 13.1908 18.1204C11.7929 13.591 5.75778 10.3843 5.69688 10.3521C5.65796 10.3323 5.62328 10.3047 5.59491 10.2709C5.56653 10.2372 5.54503 10.1979 5.53168 10.1555C5.51832 10.113 5.51338 10.0683 5.51714 10.0238C5.52091 9.97939 5.5333 9.93617 5.5536 9.89674C5.59612 9.81673 5.66739 9.75695 5.75221 9.73015C5.83702 9.70334 5.92868 9.71163 6.00764 9.75324C6.26645 9.88754 12.3526 13.12 13.8338 17.9199C13.8884 18.0974 13.789 18.2879 13.6117 18.343ZM28.9578 5.54756C28.9461 5.41901 28.8914 5.29857 28.8031 5.20669C28.7148 5.11481 28.5983 5.05714 28.4733 5.04347C28.4115 5.03703 26.9419 4.89261 25.0541 5.16857C22.5197 5.53928 20.442 6.50423 19.045 7.95948C17.6479 9.4138 16.7201 11.5764 16.3637 14.2146C16.208 15.3571 16.1648 16.5128 16.2348 17.6642C15.9237 18.16 15.705 18.7108 15.59 19.2887C15.3854 18.9677 15.1506 18.6682 14.8888 18.3946L14.8655 18.3743C14.9246 17.1509 14.9255 12.9903 12.4762 10.4404C9.64086 7.4885 4.7288 7.95488 4.52282 7.97512C4.39761 7.98842 4.28076 8.04594 4.19224 8.13788C4.10372 8.22981 4.049 8.35045 4.03744 8.47921C4.01684 8.6963 3.56996 13.8081 6.40526 16.7581C8.52501 18.9658 11.8072 19.2611 13.4129 19.2611C13.7443 19.2611 14.004 19.2482 14.1678 19.2381C15.0213 20.1515 15.4924 21.3943 15.4924 22.7483V26.438C15.4924 26.748 15.7342 27 16.0324 27C16.1764 26.999 16.3141 26.9394 16.4154 26.8342C16.5166 26.729 16.5731 26.5868 16.5724 26.4389V20.2674C16.5724 19.561 16.7667 18.8858 17.124 18.3044C18.1345 18.348 19.1468 18.2972 20.1483 18.1526C22.6827 17.781 24.7604 16.817 26.1574 15.3617C27.5545 13.9065 28.4822 11.7439 28.8378 9.10656C29.1038 7.14079 28.9641 5.61195 28.9578 5.54756Z" fill="black"/>
<path d="M43.006 6.592V13H41.791V8.68H40.315V7.825L40.459 7.816C41.287 7.762 41.845 7.51 42.043 6.592H43.006ZM47.3672 13.144C45.6662 13.144 44.8022 11.92 44.8022 9.796C44.8022 7.672 45.6662 6.448 47.3672 6.448C49.0772 6.448 49.9412 7.672 49.9412 9.796C49.9412 11.92 49.0862 13.144 47.3672 13.144ZM47.3672 12.118C48.2132 12.118 48.6722 11.425 48.6722 9.796C48.6722 8.167 48.2042 7.474 47.3672 7.474C46.5392 7.474 46.0712 8.167 46.0712 9.796C46.0712 11.425 46.5392 12.118 47.3672 12.118ZM54.0944 13.144C52.3934 13.144 51.5294 11.92 51.5294 9.796C51.5294 7.672 52.3934 6.448 54.0944 6.448C55.8044 6.448 56.6684 7.672 56.6684 9.796C56.6684 11.92 55.8134 13.144 54.0944 13.144ZM54.0944 12.118C54.9404 12.118 55.3994 11.425 55.3994 9.796C55.3994 8.167 54.9314 7.474 54.0944 7.474C53.2664 7.474 52.7984 8.167 52.7984 9.796C52.7984 11.425 53.2664 12.118 54.0944 12.118ZM59.6862 10.39C58.6332 10.39 58.1202 9.67 58.1202 8.455C58.1202 7.231 58.6332 6.511 59.6862 6.511C60.7392 6.511 61.2522 7.231 61.2522 8.455C61.2522 9.67 60.7392 10.39 59.6862 10.39ZM59.8752 13L63.2952 6.592H64.1142L60.6942 13H59.8752ZM59.6862 9.67C60.1272 9.67 60.3612 9.328 60.3612 8.455C60.3612 7.573 60.1272 7.231 59.6862 7.231C59.2542 7.231 59.0112 7.573 59.0112 8.455C59.0112 9.328 59.2542 9.67 59.6862 9.67ZM64.3032 13.081C63.2502 13.081 62.7372 12.361 62.7372 11.146C62.7372 9.922 63.2502 9.202 64.3032 9.202C65.3472 9.202 65.8692 9.922 65.8692 11.146C65.8692 12.361 65.3472 13.081 64.3032 13.081ZM64.3032 12.361C64.7352 12.361 64.9782 12.019 64.9782 11.146C64.9782 10.264 64.7352 9.922 64.3032 9.922C63.8622 9.922 63.6192 10.264 63.6192 11.146C63.6192 12.019 63.8622 12.361 64.3032 12.361ZM44.86 19.592H46.12L43.825 26H42.403L40.054 19.592H41.35L42.511 22.904C42.718 23.534 42.934 24.218 43.123 24.902C43.303 24.218 43.519 23.534 43.726 22.904L44.86 19.592ZM52.2642 20.681H48.7542V22.193H51.9312V23.237H48.7542V24.911H52.2462V26H47.5392V19.592H52.2642V20.681ZM56.931 22.544H59.793V26H58.911L58.74 25.154C58.29 25.793 57.552 26.144 56.652 26.144C54.807 26.144 53.592 24.812 53.592 22.796C53.592 20.78 54.807 19.448 56.76 19.448C58.38 19.448 59.505 20.339 59.721 21.725H58.47C58.29 20.978 57.651 20.51 56.769 20.51C55.59 20.51 54.861 21.383 54.861 22.796C54.861 24.209 55.608 25.082 56.814 25.082C57.759 25.082 58.542 24.461 58.605 23.525H56.931V22.544ZM66.3689 20.681H62.8589V22.193H66.0359V23.237H62.8589V24.911H66.3509V26H61.6439V19.592H66.3689V20.681ZM72.9431 19.592V20.681H70.8911V26H69.6671V20.681H67.6151V19.592H72.9431ZM78.0095 26L77.5055 24.587H74.6975L74.2025 26H72.9515L75.3905 19.592H76.8125L79.2965 26H78.0095ZM75.0665 23.552H77.1365L76.8845 22.859C76.6595 22.274 76.3535 21.419 76.0925 20.663C75.8315 21.419 75.5255 22.274 75.3095 22.859L75.0665 23.552ZM85.7412 25.253C85.7502 25.532 85.8132 25.811 85.9392 26H84.6882C84.5712 25.811 84.5262 25.55 84.5172 25.235L84.4902 24.533C84.4542 23.714 84.1122 23.489 83.4642 23.489H81.8802V26H80.6652V19.592H83.5722C85.0482 19.592 85.8312 20.321 85.8312 21.401C85.8312 22.139 85.4532 22.688 84.7602 22.931C85.4712 23.156 85.6602 23.633 85.6872 24.299L85.7412 25.253ZM81.8802 22.535H83.5002C84.1572 22.535 84.5802 22.193 84.5802 21.536C84.5802 20.906 84.1572 20.591 83.4552 20.591H81.8802V22.535ZM87.5505 26V19.592H88.7655V26H87.5505ZM95.1938 26L94.6898 24.587H91.8818L91.3868 26H90.1358L92.5748 19.592H93.9968L96.4808 26H95.1938ZM92.2508 23.552H94.3208L94.0688 22.859C93.8438 22.274 93.5378 21.419 93.2768 20.663C93.0158 21.419 92.7098 22.274 92.4938 22.859L92.2508 23.552ZM102.089 19.592H103.259V26H101.909L100.127 23.147C99.7215 22.508 99.3075 21.842 98.9835 21.221C99.0195 22.355 99.0195 23.381 99.0195 24.326V26H97.8495V19.592H99.1995L100.991 22.445C101.351 23.03 101.801 23.768 102.125 24.371C102.098 23.237 102.089 22.211 102.089 21.266V19.592Z" fill="black"/>
</svg>
